solid Spacer_for_ballheads_M3_800um
facet normal 0.0 0.0 -1.0
  outer loop
    vertex 0.3661593373790638 2.4598495021560103 -1.762479051592436e-16
    vertex 0.42042053170000887 1.4778350890911007 -1.762479051592436e-16
    vertex 0.3286476094661289 1.9652704847463418 -1.762479051592436e-16
  endloop
endfacet
facet normal 0.0 0.0 -1.0
  outer loop
    vertex 0.42042053170000887 1.4778350890911007 -1.762479051592436e-16
    vertex 0.3661593373790638 2.4598495021560103 -1.762479051592436e-16
    vertex 0.5303993531726097 2.9278673986141075 -1.762479051592436e-16
  endloop
endfacet
facet normal 0.0 0.0 -1.0
  outer loop
    vertex 0.42042053170000887 1.4778350890911007 -1.762479051592436e-16
    vertex 0.5303993531726097 2.9278673986141075 -1.762479051592436e-16
    vertex 0.6352239310923922 1.0307612318791135 -1.762479051592436e-16
  endloop
endfacet
facet normal 0.0 0.0 -1.0
  outer loop
    vertex 0.6352239310923922 1.0307612318791135 -1.762479051592436e-16
    vertex 0.5303993531726097 2.9278673986141075 -1.762479051592436e-16
    vertex 0.8101749711898957 3.337429527913161 -1.762479051592436e-16
  endloop
endfacet
facet normal 0.0 0.0 -1.0
  outer loop
    vertex 0.6352239310923922 1.0307612318791135 -1.762479051592436e-16
    vertex 0.8101749711898957 3.337429527913161 -1.762479051592436e-16
    vertex 0.7257537762011225 2.0700950626661245 -1.762479051592436e-16
  endloop
endfacet
facet normal 0.0 0.0 -1.0
  outer loop
    vertex 0.7257537762011225 2.0700950626661245 -1.762479051592436e-16
    vertex 0.8101749711898957 3.337429527913161 -1.762479051592436e-16
    vertex 0.7768650367675202 2.4583236303199065 -1.762479051592436e-16
  endloop
endfacet
facet normal 0.0 0.0 -1.0
  outer loop
    vertex 0.7768650367675202 2.4583236303199065 -1.762479051592436e-16
    vertex 0.8101749711898957 3.337429527913161 -1.762479051592436e-16
    vertex 0.9267156705244652 2.8200950626661268 -1.762479051592436e-16
  endloop
endfacet
facet normal 0.0 0.0 -1.0
  outer loop
    vertex 0.9267156705244652 2.8200950626661268 -1.762479051592436e-16
    vertex 0.8101749711898957 3.337429527913161 -1.762479051592436e-16
    vertex 1.1864199454141122 3.6606249077748556 -1.762479051592436e-16
  endloop
endfacet
facet normal 0.0 0.0 -1.0
  outer loop
    vertex 0.9267156705244652 2.8200950626661268 -1.762479051592436e-16
    vertex 1.1864199454141122 3.6606249077748556 -1.762479051592436e-16
    vertex 1.1650936044213014 3.130755234445946 -1.762479051592436e-16
  endloop
endfacet
facet normal 0.0 0.0 -1.0
  outer loop
    vertex 1.1650936044213014 3.130755234445946 -1.762479051592436e-16
    vertex 1.1864199454141122 3.6606249077748556 -1.762479051592436e-16
    vertex 1.4757537762011232 3.369133168342784 -1.762479051592436e-16
  endloop
endfacet
facet normal 0.0 0.0 -1.0
  outer loop
    vertex 1.4757537762011232 3.369133168342784 -1.762479051592436e-16
    vertex 1.1864199454141122 3.6606249077748556 -1.762479051592436e-16
    vertex 1.6334938026260997 3.8754283071672386 -1.762479051592436e-16
  endloop
endfacet
facet normal 0.0 0.0 -1.0
  outer loop
    vertex 1.4757537762011232 3.369133168342784 -1.762479051592436e-16
    vertex 1.6334938026260997 3.8754283071672386 -1.762479051592436e-16
    vertex 1.8375252085473412 3.5189838020997275 -1.762479051592436e-16
  endloop
endfacet
facet normal 0.0 0.0 -1.0
  outer loop
    vertex 1.8375252085473412 3.5189838020997275 -1.762479051592436e-16
    vertex 1.6334938026260997 3.8754283071672386 -1.762479051592436e-16
    vertex 2.12092919828134 3.9672012294011187 -1.762479051592436e-16
  endloop
endfacet
facet normal 0.0 0.0 -1.0
  outer loop
    vertex 1.8375252085473412 3.5189838020997275 -1.762479051592436e-16
    vertex 2.12092919828134 3.9672012294011187 -1.762479051592436e-16
    vertex 2.2257537762011226 3.570095062666125 -1.762479051592436e-16
  endloop
endfacet
facet normal 0.0 0.0 -1.0
  outer loop
    vertex 2.2257537762011226 3.570095062666125 -1.762479051592436e-16
    vertex 2.12092919828134 3.9672012294011187 -1.762479051592436e-16
    vertex 2.615508215691008 3.929689501488184 -1.762479051592436e-16
  endloop
endfacet
facet normal 0.0 0.0 -1.0
  outer loop
    vertex 2.2257537762011226 3.570095062666125 -1.762479051592436e-16
    vertex 2.615508215691008 3.929689501488184 -1.762479051592436e-16
    vertex 2.6139823438549037 3.5189838020997275 -1.762479051592436e-16
  endloop
endfacet
facet normal 0.0 0.0 -1.0
  outer loop
    vertex 2.6139823438549037 3.5189838020997275 -1.762479051592436e-16
    vertex 2.615508215691008 3.929689501488184 -1.762479051592436e-16
    vertex 2.9757537762011226 3.369133168342784 -1.762479051592436e-16
  endloop
endfacet
facet normal 0.0 0.0 -1.0
  outer loop
    vertex 2.9757537762011226 3.369133168342784 -1.762479051592436e-16
    vertex 2.615508215691008 3.929689501488184 -1.762479051592436e-16
    vertex 3.0835261121491064 3.765449485694638 -1.762479051592436e-16
  endloop
endfacet
facet normal 0.0 0.0 -1.0
  outer loop
    vertex 2.9757537762011226 3.369133168342784 -1.762479051592436e-16
    vertex 3.0835261121491064 3.765449485694638 -1.762479051592436e-16
    vertex 3.2864139479809444 3.130755234445946 -1.762479051592436e-16
  endloop
endfacet
facet normal 0.0 0.0 -1.0
  outer loop
    vertex 3.2864139479809444 3.130755234445946 -1.762479051592436e-16
    vertex 3.0835261121491064 3.765449485694638 -1.762479051592436e-16
    vertex 3.493088241448159 3.4856738676773533 -1.762479051592436e-16
  endloop
endfacet
facet normal 0.0 0.0 -1.0
  outer loop
    vertex 3.2864139479809444 3.130755234445946 -1.762479051592436e-16
    vertex 3.493088241448159 3.4856738676773533 -1.762479051592436e-16
    vertex 3.5247918818777806 2.8200950626661236 -1.762479051592436e-16
  endloop
endfacet
facet normal 0.0 0.0 -1.0
  outer loop
    vertex 3.5247918818777806 2.8200950626661236 -1.762479051592436e-16
    vertex 3.493088241448159 3.4856738676773533 -1.762479051592436e-16
    vertex 3.8162836213098537 3.109428893453136 -1.762479051592436e-16
  endloop
endfacet
facet normal 0.0 0.0 -1.0
  outer loop
    vertex 3.5247918818777806 2.8200950626661236 -1.762479051592436e-16
    vertex 3.8162836213098537 3.109428893453136 -1.762479051592436e-16
    vertex 3.6746425156347255 2.4583236303199065 -1.762479051592436e-16
  endloop
endfacet
facet normal 0.0 0.0 -1.0
  outer loop
    vertex 3.6746425156347255 2.4583236303199065 -1.762479051592436e-16
    vertex 3.8162836213098537 3.109428893453136 -1.762479051592436e-16
    vertex 3.7257537762011235 2.0700950626661245 -1.762479051592436e-16
  endloop
endfacet
facet normal 0.0 0.0 -1.0
  outer loop
    vertex 0.6352239310923922 1.0307612318791135 -1.762479051592436e-16
    vertex 0.7768650367675202 1.6818664950123423 -1.762479051592436e-16
    vertex 0.9584193109540867 0.6545162576548987 -1.762479051592436e-16
  endloop
endfacet
facet normal 0.0 0.0 -1.0
  outer loop
    vertex 0.7768650367675202 1.6818664950123423 -1.762479051592436e-16
    vertex 0.6352239310923922 1.0307612318791135 -1.762479051592436e-16
    vertex 0.7257537762011225 2.0700950626661245 -1.762479051592436e-16
  endloop
endfacet
facet normal 0.0 0.0 -1.0
  outer loop
    vertex 0.9584193109540867 0.6545162576548987 -1.762479051592436e-16
    vertex 0.7768650367675202 1.6818664950123423 -1.762479051592436e-16
    vertex 0.9267156705244645 1.3200950626661259 -1.762479051592436e-16
  endloop
endfacet
facet normal 0.0 0.0 -1.0
  outer loop
    vertex 0.9584193109540867 0.6545162576548987 -1.762479051592436e-16
    vertex 0.9267156705244645 1.3200950626661259 -1.762479051592436e-16
    vertex 1.1650936044213007 1.0094348908863033 -1.762479051592436e-16
  endloop
endfacet
facet normal 0.0 0.0 -1.0
  outer loop
    vertex 0.9584193109540867 0.6545162576548987 -1.762479051592436e-16
    vertex 1.1650936044213007 1.0094348908863033 -1.762479051592436e-16
    vertex 1.3679814402531378 0.3747406396376111 -1.762479051592436e-16
  endloop
endfacet
facet normal 0.0 0.0 -1.0
  outer loop
    vertex 1.3679814402531378 0.3747406396376111 -1.762479051592436e-16
    vertex 1.1650936044213007 1.0094348908863033 -1.762479051592436e-16
    vertex 1.475753776201122 0.7710569569894656 -1.762479051592436e-16
  endloop
endfacet
facet normal 0.0 0.0 -1.0
  outer loop
    vertex 1.3679814402531378 0.3747406396376111 -1.762479051592436e-16
    vertex 1.475753776201122 0.7710569569894656 -1.762479051592436e-16
    vertex 1.8359993367112373 0.21050062384406526 -1.762479051592436e-16
  endloop
endfacet
facet normal 0.0 0.0 -1.0
  outer loop
    vertex 1.8359993367112373 0.21050062384406526 -1.762479051592436e-16
    vertex 1.475753776201122 0.7710569569894656 -1.762479051592436e-16
    vertex 1.83752520854734 0.6212063232325215 -1.762479051592436e-16
  endloop
endfacet
facet normal 0.0 0.0 -1.0
  outer loop
    vertex 1.8359993367112373 0.21050062384406526 -1.762479051592436e-16
    vertex 1.83752520854734 0.6212063232325215 -1.762479051592436e-16
    vertex 2.330578354120905 0.1729888959311304 -1.762479051592436e-16
  endloop
endfacet
facet normal 0.0 0.0 -1.0
  outer loop
    vertex 2.330578354120905 0.1729888959311304 -1.762479051592436e-16
    vertex 1.83752520854734 0.6212063232325215 -1.762479051592436e-16
    vertex 2.2257537762011226 0.570095062666124 -1.762479051592436e-16
  endloop
endfacet
facet normal 0.0 0.0 -1.0
  outer loop
    vertex 2.330578354120905 0.1729888959311304 -1.762479051592436e-16
    vertex 2.2257537762011226 0.570095062666124 -1.762479051592436e-16
    vertex 2.6139823438549024 0.6212063232325215 -1.762479051592436e-16
  endloop
endfacet
facet normal 0.0 0.0 -1.0
  outer loop
    vertex 2.330578354120905 0.1729888959311304 -1.762479051592436e-16
    vertex 2.6139823438549024 0.6212063232325215 -1.762479051592436e-16
    vertex 2.8180137497761457 0.2647618181650103 -1.762479051592436e-16
  endloop
endfacet
facet normal 0.0 0.0 -1.0
  outer loop
    vertex 2.8180137497761457 0.2647618181650103 -1.762479051592436e-16
    vertex 2.6139823438549024 0.6212063232325215 -1.762479051592436e-16
    vertex 2.9757537762011212 0.7710569569894656 -1.762479051592436e-16
  endloop
endfacet
facet normal 0.0 0.0 -1.0
  outer loop
    vertex 2.8180137497761457 0.2647618181650103 -1.762479051592436e-16
    vertex 2.9757537762011212 0.7710569569894656 -1.762479051592436e-16
    vertex 3.265087606988133 0.4795652175573937 -1.762479051592436e-16
  endloop
endfacet
facet normal 0.0 0.0 -1.0
  outer loop
    vertex 3.265087606988133 0.4795652175573937 -1.762479051592436e-16
    vertex 2.9757537762011212 0.7710569569894656 -1.762479051592436e-16
    vertex 3.2864139479809444 1.0094348908863033 -1.762479051592436e-16
  endloop
endfacet
facet normal 0.0 0.0 -1.0
  outer loop
    vertex 3.265087606988133 0.4795652175573937 -1.762479051592436e-16
    vertex 3.2864139479809444 1.0094348908863033 -1.762479051592436e-16
    vertex 3.64133258121235 0.8027605974190885 -1.762479051592436e-16
  endloop
endfacet
facet normal 0.0 0.0 -1.0
  outer loop
    vertex 3.64133258121235 0.8027605974190885 -1.762479051592436e-16
    vertex 3.2864139479809444 1.0094348908863033 -1.762479051592436e-16
    vertex 3.5247918818777806 1.320095062666123 -1.762479051592436e-16
  endloop
endfacet
facet normal 0.0 0.0 -1.0
  outer loop
    vertex 3.64133258121235 0.8027605974190885 -1.762479051592436e-16
    vertex 3.5247918818777806 1.320095062666123 -1.762479051592436e-16
    vertex 3.6746425156347255 1.6818664950123423 -1.762479051592436e-16
  endloop
endfacet
facet normal 0.0 0.0 -1.0
  outer loop
    vertex 3.64133258121235 0.8027605974190885 -1.762479051592436e-16
    vertex 3.6746425156347255 1.6818664950123423 -1.762479051592436e-16
    vertex 3.9211081992296375 1.212322726718139 -1.762479051592436e-16
  endloop
endfacet
facet normal 0.0 0.0 -1.0
  outer loop
    vertex 3.9211081992296375 1.212322726718139 -1.762479051592436e-16
    vertex 3.6746425156347255 1.6818664950123423 -1.762479051592436e-16
    vertex 3.7257537762011235 2.0700950626661245 -1.762479051592436e-16
  endloop
endfacet
facet normal 0.0 0.0 -1.0
  outer loop
    vertex 3.9211081992296375 1.212322726718139 -1.762479051592436e-16
    vertex 3.7257537762011235 2.0700950626661245 -1.762479051592436e-16
    vertex 3.8162836213098537 3.109428893453136 -1.762479051592436e-16
  endloop
endfacet
facet normal 0.0 0.0 -1.0
  outer loop
    vertex 3.9211081992296375 1.212322726718139 -1.762479051592436e-16
    vertex 3.8162836213098537 3.109428893453136 -1.762479051592436e-16
    vertex 4.0310870207022385 2.662355036241148 -1.762479051592436e-16
  endloop
endfacet
facet normal 0.0 0.0 -1.0
  outer loop
    vertex 3.9211081992296375 1.212322726718139 -1.762479051592436e-16
    vertex 4.0310870207022385 2.662355036241148 -1.762479051592436e-16
    vertex 4.085348215023183 1.6803406231762383 -1.762479051592436e-16
  endloop
endfacet
facet normal 0.0 0.0 -1.0
  outer loop
    vertex 4.085348215023183 1.6803406231762383 -1.762479051592436e-16
    vertex 4.0310870207022385 2.662355036241148 -1.762479051592436e-16
    vertex 4.122859942936119 2.174919640585907 -1.762479051592436e-16
  endloop
endfacet
facet normal 0.6087614290087222 -0.7933533402912342 0.0
  outer loop
    vertex 1.4757537762011232 3.369133168342784 0.7999999999999999
    vertex 1.1650936044213014 3.130755234445946 -1.762479051592436e-16
    vertex 1.4757537762011232 3.369133168342784 -1.762479051592436e-16
  endloop
endfacet
facet normal 0.6087614290087222 -0.7933533402912342 0.0
  outer loop
    vertex 1.1650936044213014 3.130755234445946 -1.762479051592436e-16
    vertex 1.4757537762011232 3.369133168342784 0.7999999999999999
    vertex 1.1650936044213014 3.130755234445946 0.7999999999999999
  endloop
endfacet
facet normal 0.7933533402912338 -0.6087614290087224 -0.0
  outer loop
    vertex 1.1650936044213014 3.130755234445946 -1.762479051592436e-16
    vertex 0.9267156705244652 2.8200950626661268 0.7999999999999999
    vertex 0.9267156705244652 2.8200950626661268 -1.762479051592436e-16
  endloop
endfacet
facet normal 0.7933533402912338 -0.6087614290087224 -0.0
  outer loop
    vertex 0.9267156705244652 2.8200950626661268 0.7999999999999999
    vertex 1.1650936044213014 3.130755234445946 -1.762479051592436e-16
    vertex 1.1650936044213014 3.130755234445946 0.7999999999999999
  endloop
endfacet
facet normal 0.9238795325112867 -0.3826834323650901 -0.0
  outer loop
    vertex 0.9267156705244652 2.8200950626661268 -1.762479051592436e-16
    vertex 0.7768650367675202 2.4583236303199065 0.7999999999999999
    vertex 0.7768650367675202 2.4583236303199065 -1.762479051592436e-16
  endloop
endfacet
facet normal 0.9238795325112867 -0.3826834323650901 -0.0
  outer loop
    vertex 0.7768650367675202 2.4583236303199065 0.7999999999999999
    vertex 0.9267156705244652 2.8200950626661268 -1.762479051592436e-16
    vertex 0.9267156705244652 2.8200950626661268 0.7999999999999999
  endloop
endfacet
facet normal 0.9914448613738105 -0.13052619222005143 -0.0
  outer loop
    vertex 0.7768650367675202 2.4583236303199065 -1.762479051592436e-16
    vertex 0.7257537762011225 2.0700950626661245 0.7999999999999999
    vertex 0.7257537762011225 2.0700950626661245 -1.762479051592436e-16
  endloop
endfacet
facet normal 0.9914448613738105 -0.13052619222005143 -0.0
  outer loop
    vertex 0.7257537762011225 2.0700950626661245 0.7999999999999999
    vertex 0.7768650367675202 2.4583236303199065 -1.762479051592436e-16
    vertex 0.7768650367675202 2.4583236303199065 0.7999999999999999
  endloop
endfacet
facet normal 0.9914448613738105 0.13052619222005143 -0.0
  outer loop
    vertex 0.7257537762011225 2.0700950626661245 -1.762479051592436e-16
    vertex 0.7768650367675202 1.6818664950123423 0.7999999999999999
    vertex 0.7768650367675202 1.6818664950123423 -1.762479051592436e-16
  endloop
endfacet
facet normal 0.9914448613738105 0.13052619222005143 -0.0
  outer loop
    vertex 0.7768650367675202 1.6818664950123423 0.7999999999999999
    vertex 0.7257537762011225 2.0700950626661245 -1.762479051592436e-16
    vertex 0.7257537762011225 2.0700950626661245 0.7999999999999999
  endloop
endfacet
facet normal 0.923879532511286 0.3826834323650916 -0.0
  outer loop
    vertex 0.7768650367675202 1.6818664950123423 -1.762479051592436e-16
    vertex 0.9267156705244645 1.3200950626661259 0.7999999999999999
    vertex 0.9267156705244645 1.3200950626661259 -1.762479051592436e-16
  endloop
endfacet
facet normal 0.923879532511286 0.3826834323650916 -0.0
  outer loop
    vertex 0.9267156705244645 1.3200950626661259 0.7999999999999999
    vertex 0.7768650367675202 1.6818664950123423 -1.762479051592436e-16
    vertex 0.7768650367675202 1.6818664950123423 0.7999999999999999
  endloop
endfacet
facet normal 0.7933533402912368 0.6087614290087184 -0.0
  outer loop
    vertex 0.9267156705244645 1.3200950626661259 -1.762479051592436e-16
    vertex 1.1650936044213007 1.0094348908863033 0.7999999999999999
    vertex 1.1650936044213007 1.0094348908863033 -1.762479051592436e-16
  endloop
endfacet
facet normal 0.7933533402912368 0.6087614290087184 -0.0
  outer loop
    vertex 1.1650936044213007 1.0094348908863033 0.7999999999999999
    vertex 0.9267156705244645 1.3200950626661259 -1.762479051592436e-16
    vertex 0.9267156705244645 1.3200950626661259 0.7999999999999999
  endloop
endfacet
facet normal 0.6087614290087224 0.7933533402912338 -0.0
  outer loop
    vertex 1.1650936044213007 1.0094348908863033 0.7999999999999999
    vertex 1.475753776201122 0.7710569569894656 -1.762479051592436e-16
    vertex 1.1650936044213007 1.0094348908863033 -1.762479051592436e-16
  endloop
endfacet
facet normal 0.6087614290087224 0.7933533402912338 -0.0
  outer loop
    vertex 1.475753776201122 0.7710569569894656 -1.762479051592436e-16
    vertex 1.1650936044213007 1.0094348908863033 0.7999999999999999
    vertex 1.475753776201122 0.7710569569894656 0.7999999999999999
  endloop
endfacet
facet normal 0.38268343236508995 0.9238795325112867 -0.0
  outer loop
    vertex 1.475753776201122 0.7710569569894656 0.7999999999999999
    vertex 1.83752520854734 0.6212063232325215 -1.762479051592436e-16
    vertex 1.475753776201122 0.7710569569894656 -1.762479051592436e-16
  endloop
endfacet
facet normal 0.38268343236508995 0.9238795325112867 -0.0
  outer loop
    vertex 1.83752520854734 0.6212063232325215 -1.762479051592436e-16
    vertex 1.475753776201122 0.7710569569894656 0.7999999999999999
    vertex 1.83752520854734 0.6212063232325215 0.7999999999999999
  endloop
endfacet
facet normal 0.13052619222005077 0.9914448613738105 -0.0
  outer loop
    vertex 1.83752520854734 0.6212063232325215 0.7999999999999999
    vertex 2.2257537762011226 0.570095062666124 -1.762479051592436e-16
    vertex 1.83752520854734 0.6212063232325215 -1.762479051592436e-16
  endloop
endfacet
facet normal 0.13052619222005077 0.9914448613738105 -0.0
  outer loop
    vertex 2.2257537762011226 0.570095062666124 -1.762479051592436e-16
    vertex 1.83752520854734 0.6212063232325215 0.7999999999999999
    vertex 2.2257537762011226 0.570095062666124 0.7999999999999999
  endloop
endfacet
facet normal -0.1305261922200517 0.9914448613738105 -0.0
  outer loop
    vertex 2.2257537762011226 0.570095062666124 0.7999999999999999
    vertex 2.6139823438549024 0.6212063232325215 -1.762479051592436e-16
    vertex 2.2257537762011226 0.570095062666124 -1.762479051592436e-16
  endloop
endfacet
facet normal -0.1305261922200517 0.9914448613738105 -0.0
  outer loop
    vertex 2.6139823438549024 0.6212063232325215 -1.762479051592436e-16
    vertex 2.2257537762011226 0.570095062666124 0.7999999999999999
    vertex 2.6139823438549024 0.6212063232325215 0.7999999999999999
  endloop
endfacet
facet normal -0.38268343236508945 0.9238795325112871 -0.0
  outer loop
    vertex 2.6139823438549024 0.6212063232325215 0.7999999999999999
    vertex 2.9757537762011212 0.7710569569894656 -1.762479051592436e-16
    vertex 2.6139823438549024 0.6212063232325215 -1.762479051592436e-16
  endloop
endfacet
facet normal -0.38268343236508945 0.9238795325112871 -0.0
  outer loop
    vertex 2.9757537762011212 0.7710569569894656 -1.762479051592436e-16
    vertex 2.6139823438549024 0.6212063232325215 0.7999999999999999
    vertex 2.9757537762011212 0.7710569569894656 0.7999999999999999
  endloop
endfacet
facet normal -0.6087614290087199 0.7933533402912358 -0.0
  outer loop
    vertex 2.9757537762011212 0.7710569569894656 0.7999999999999999
    vertex 3.2864139479809444 1.0094348908863033 -1.762479051592436e-16
    vertex 2.9757537762011212 0.7710569569894656 -1.762479051592436e-16
  endloop
endfacet
facet normal -0.6087614290087199 0.7933533402912358 -0.0
  outer loop
    vertex 3.2864139479809444 1.0094348908863033 -1.762479051592436e-16
    vertex 2.9757537762011212 0.7710569569894656 0.7999999999999999
    vertex 3.2864139479809444 1.0094348908863033 0.7999999999999999
  endloop
endfacet
facet normal -0.7933533402912342 0.6087614290087219 0.0
  outer loop
    vertex 3.5247918818777806 1.320095062666123 0.7999999999999999
    vertex 3.2864139479809444 1.0094348908863033 -1.762479051592436e-16
    vertex 3.2864139479809444 1.0094348908863033 0.7999999999999999
  endloop
endfacet
facet normal -0.7933533402912342 0.6087614290087219 0.0
  outer loop
    vertex 3.2864139479809444 1.0094348908863033 -1.762479051592436e-16
    vertex 3.5247918818777806 1.320095062666123 0.7999999999999999
    vertex 3.5247918818777806 1.320095062666123 -1.762479051592436e-16
  endloop
endfacet
facet normal -0.9238795325112865 0.3826834323650908 0.0
  outer loop
    vertex 3.6746425156347255 1.6818664950123423 0.7999999999999999
    vertex 3.5247918818777806 1.320095062666123 -1.762479051592436e-16
    vertex 3.5247918818777806 1.320095062666123 0.7999999999999999
  endloop
endfacet
facet normal -0.9238795325112865 0.3826834323650908 0.0
  outer loop
    vertex 3.5247918818777806 1.320095062666123 -1.762479051592436e-16
    vertex 3.6746425156347255 1.6818664950123423 0.7999999999999999
    vertex 3.6746425156347255 1.6818664950123423 -1.762479051592436e-16
  endloop
endfacet
facet normal -0.9914448613738105 0.13052619222005143 0.0
  outer loop
    vertex 3.7257537762011235 2.0700950626661245 0.7999999999999999
    vertex 3.6746425156347255 1.6818664950123423 -1.762479051592436e-16
    vertex 3.6746425156347255 1.6818664950123423 0.7999999999999999
  endloop
endfacet
facet normal -0.9914448613738105 0.13052619222005143 0.0
  outer loop
    vertex 3.6746425156347255 1.6818664950123423 -1.762479051592436e-16
    vertex 3.7257537762011235 2.0700950626661245 0.7999999999999999
    vertex 3.7257537762011235 2.0700950626661245 -1.762479051592436e-16
  endloop
endfacet
facet normal -0.9914448613738105 -0.13052619222005143 0.0
  outer loop
    vertex 3.6746425156347255 2.4583236303199065 0.7999999999999999
    vertex 3.7257537762011235 2.0700950626661245 -1.762479051592436e-16
    vertex 3.7257537762011235 2.0700950626661245 0.7999999999999999
  endloop
endfacet
facet normal -0.9914448613738105 -0.13052619222005143 0.0
  outer loop
    vertex 3.7257537762011235 2.0700950626661245 -1.762479051592436e-16
    vertex 3.6746425156347255 2.4583236303199065 0.7999999999999999
    vertex 3.6746425156347255 2.4583236303199065 -1.762479051592436e-16
  endloop
endfacet
facet normal -0.9238795325112857 -0.38268343236509267 0.0
  outer loop
    vertex 3.5247918818777806 2.8200950626661236 0.7999999999999999
    vertex 3.6746425156347255 2.4583236303199065 -1.762479051592436e-16
    vertex 3.6746425156347255 2.4583236303199065 0.7999999999999999
  endloop
endfacet
facet normal -0.9238795325112857 -0.38268343236509267 0.0
  outer loop
    vertex 3.6746425156347255 2.4583236303199065 -1.762479051592436e-16
    vertex 3.5247918818777806 2.8200950626661236 0.7999999999999999
    vertex 3.5247918818777806 2.8200950626661236 -1.762479051592436e-16
  endloop
endfacet
facet normal -0.7933533402912365 -0.6087614290087189 0.0
  outer loop
    vertex 3.2864139479809444 3.130755234445946 0.7999999999999999
    vertex 3.5247918818777806 2.8200950626661236 -1.762479051592436e-16
    vertex 3.5247918818777806 2.8200950626661236 0.7999999999999999
  endloop
endfacet
facet normal -0.7933533402912365 -0.6087614290087189 0.0
  outer loop
    vertex 3.5247918818777806 2.8200950626661236 -1.762479051592436e-16
    vertex 3.2864139479809444 3.130755234445946 0.7999999999999999
    vertex 3.2864139479809444 3.130755234445946 -1.762479051592436e-16
  endloop
endfacet
facet normal -0.6087614290087222 -0.7933533402912342 0.0
  outer loop
    vertex 3.2864139479809444 3.130755234445946 0.7999999999999999
    vertex 2.9757537762011226 3.369133168342784 -1.762479051592436e-16
    vertex 3.2864139479809444 3.130755234445946 -1.762479051592436e-16
  endloop
endfacet
facet normal -0.6087614290087222 -0.7933533402912342 0.0
  outer loop
    vertex 2.9757537762011226 3.369133168342784 -1.762479051592436e-16
    vertex 3.2864139479809444 3.130755234445946 0.7999999999999999
    vertex 2.9757537762011226 3.369133168342784 0.7999999999999999
  endloop
endfacet
facet normal -0.3826834323650882 -0.9238795325112875 0.0
  outer loop
    vertex 2.9757537762011226 3.369133168342784 0.7999999999999999
    vertex 2.6139823438549037 3.5189838020997275 -1.762479051592436e-16
    vertex 2.9757537762011226 3.369133168342784 -1.762479051592436e-16
  endloop
endfacet
facet normal -0.3826834323650882 -0.9238795325112875 0.0
  outer loop
    vertex 2.6139823438549037 3.5189838020997275 -1.762479051592436e-16
    vertex 2.9757537762011226 3.369133168342784 0.7999999999999999
    vertex 2.6139823438549037 3.5189838020997275 0.7999999999999999
  endloop
endfacet
facet normal -0.13052619222005168 -0.9914448613738105 0.0
  outer loop
    vertex 2.6139823438549037 3.5189838020997275 0.7999999999999999
    vertex 2.2257537762011226 3.570095062666125 -1.762479051592436e-16
    vertex 2.6139823438549037 3.5189838020997275 -1.762479051592436e-16
  endloop
endfacet
facet normal -0.13052619222005168 -0.9914448613738105 0.0
  outer loop
    vertex 2.2257537762011226 3.570095062666125 -1.762479051592436e-16
    vertex 2.6139823438549037 3.5189838020997275 0.7999999999999999
    vertex 2.2257537762011226 3.570095062666125 0.7999999999999999
  endloop
endfacet
facet normal 0.13052619222005168 -0.9914448613738105 0.0
  outer loop
    vertex 2.2257537762011226 3.570095062666125 0.7999999999999999
    vertex 1.8375252085473412 3.5189838020997275 -1.762479051592436e-16
    vertex 2.2257537762011226 3.570095062666125 -1.762479051592436e-16
  endloop
endfacet
facet normal 0.13052619222005168 -0.9914448613738105 0.0
  outer loop
    vertex 1.8375252085473412 3.5189838020997275 -1.762479051592436e-16
    vertex 2.2257537762011226 3.570095062666125 0.7999999999999999
    vertex 1.8375252085473412 3.5189838020997275 0.7999999999999999
  endloop
endfacet
facet normal 0.3826834323650889 -0.9238795325112873 0.0
  outer loop
    vertex 1.8375252085473412 3.5189838020997275 0.7999999999999999
    vertex 1.4757537762011232 3.369133168342784 -1.762479051592436e-16
    vertex 1.8375252085473412 3.5189838020997275 -1.762479051592436e-16
  endloop
endfacet
facet normal 0.3826834323650889 -0.9238795325112873 0.0
  outer loop
    vertex 1.4757537762011232 3.369133168342784 -1.762479051592436e-16
    vertex 1.8375252085473412 3.5189838020997275 0.7999999999999999
    vertex 1.4757537762011232 3.369133168342784 0.7999999999999999
  endloop
endfacet
facet normal 0.9435853619589313 -0.33112937758047484 -0.0
  outer loop
    vertex 4.085348215023183 1.6803406231762383 -1.762479051592436e-16
    vertex 3.9211081992296375 1.212322726718139 0.7999999999999999
    vertex 3.9211081992296375 1.212322726718139 -1.762479051592436e-16
  endloop
endfacet
facet normal 0.9435853619589313 -0.33112937758047484 -0.0
  outer loop
    vertex 3.9211081992296375 1.212322726718139 0.7999999999999999
    vertex 4.085348215023183 1.6803406231762383 -1.762479051592436e-16
    vertex 4.085348215023183 1.6803406231762383 0.7999999999999999
  endloop
endfacet
facet normal -0.5640642800029357 -0.8257308811136773 0.0
  outer loop
    vertex 1.3679814402531378 0.3747406396376111 0.7999999999999999
    vertex 0.9584193109540867 0.6545162576548987 -1.762479051592436e-16
    vertex 1.3679814402531378 0.3747406396376111 -1.762479051592436e-16
  endloop
endfacet
facet normal -0.5640642800029357 -0.8257308811136773 0.0
  outer loop
    vertex 0.9584193109540867 0.6545162576548987 -1.762479051592436e-16
    vertex 1.3679814402531378 0.3747406396376111 0.7999999999999999
    vertex 0.9584193109540867 0.6545162576548987 0.7999999999999999
  endloop
endfacet
facet normal -0.33112937758047484 -0.9435853619589313 0.0
  outer loop
    vertex 1.8359993367112373 0.21050062384406526 0.7999999999999999
    vertex 1.3679814402531378 0.3747406396376111 -1.762479051592436e-16
    vertex 1.8359993367112373 0.21050062384406526 -1.762479051592436e-16
  endloop
endfacet
facet normal -0.33112937758047484 -0.9435853619589313 0.0
  outer loop
    vertex 1.3679814402531378 0.3747406396376111 -1.762479051592436e-16
    vertex 1.8359993367112373 0.21050062384406526 0.7999999999999999
    vertex 1.3679814402531378 0.3747406396376111 0.7999999999999999
  endloop
endfacet
facet normal 0.9971360597352209 -0.07562855529307848 -0.0
  outer loop
    vertex 4.122859942936119 2.174919640585907 -1.762479051592436e-16
    vertex 4.085348215023183 1.6803406231762383 0.7999999999999999
    vertex 4.085348215023183 1.6803406231762383 -1.762479051592436e-16
  endloop
endfacet
facet normal 0.9971360597352209 -0.07562855529307848 -0.0
  outer loop
    vertex 4.085348215023183 1.6803406231762383 0.7999999999999999
    vertex 4.122859942936119 2.174919640585907 -1.762479051592436e-16
    vertex 4.122859942936119 2.174919640585907 0.7999999999999999
  endloop
endfacet
facet normal 0.43307177973228855 -0.901359436406758 0.0
  outer loop
    vertex 3.265087606988133 0.4795652175573937 0.7999999999999999
    vertex 2.8180137497761457 0.2647618181650103 -1.762479051592436e-16
    vertex 3.265087606988133 0.4795652175573937 -1.762479051592436e-16
  endloop
endfacet
facet normal 0.43307177973228855 -0.901359436406758 0.0
  outer loop
    vertex 2.8180137497761457 0.2647618181650103 -1.762479051592436e-16
    vertex 3.265087606988133 0.4795652175573937 0.7999999999999999
    vertex 2.8180137497761457 0.2647618181650103 0.7999999999999999
  endloop
endfacet
facet normal 3.728746195284226e-32 -3.5853328800809875e-33 1.0
  outer loop
    vertex 0.6352239310923922 1.0307612318791135 0.7999999999999999
    vertex 0.7768650367675202 1.6818664950123423 0.7999999999999999
    vertex 0.7257537762011225 2.0700950626661245 0.7999999999999999
  endloop
endfacet
facet normal 3.728746195284226e-32 -3.5853328800809875e-33 1.0
  outer loop
    vertex 0.7768650367675202 1.6818664950123423 0.7999999999999999
    vertex 0.6352239310923922 1.0307612318791135 0.7999999999999999
    vertex 0.9584193109540867 0.6545162576548987 0.7999999999999999
  endloop
endfacet
facet normal 3.728746195284226e-32 -3.5853328800809875e-33 1.0
  outer loop
    vertex 0.7768650367675202 1.6818664950123423 0.7999999999999999
    vertex 0.9584193109540867 0.6545162576548987 0.7999999999999999
    vertex 0.9267156705244645 1.3200950626661259 0.7999999999999999
  endloop
endfacet
facet normal 3.728746195284226e-32 -3.5853328800809875e-33 1.0
  outer loop
    vertex 0.9267156705244645 1.3200950626661259 0.7999999999999999
    vertex 0.9584193109540867 0.6545162576548987 0.7999999999999999
    vertex 1.1650936044213007 1.0094348908863033 0.7999999999999999
  endloop
endfacet
facet normal 3.728746195284226e-32 -3.5853328800809875e-33 1.0
  outer loop
    vertex 1.1650936044213007 1.0094348908863033 0.7999999999999999
    vertex 0.9584193109540867 0.6545162576548987 0.7999999999999999
    vertex 1.3679814402531378 0.3747406396376111 0.7999999999999999
  endloop
endfacet
facet normal 3.728746195284226e-32 -3.5853328800809875e-33 1.0
  outer loop
    vertex 1.1650936044213007 1.0094348908863033 0.7999999999999999
    vertex 1.3679814402531378 0.3747406396376111 0.7999999999999999
    vertex 1.475753776201122 0.7710569569894656 0.7999999999999999
  endloop
endfacet
facet normal 3.728746195284226e-32 -3.5853328800809875e-33 1.0
  outer loop
    vertex 1.475753776201122 0.7710569569894656 0.7999999999999999
    vertex 1.3679814402531378 0.3747406396376111 0.7999999999999999
    vertex 1.8359993367112373 0.21050062384406526 0.7999999999999999
  endloop
endfacet
facet normal 3.728746195284226e-32 -3.5853328800809875e-33 1.0
  outer loop
    vertex 1.475753776201122 0.7710569569894656 0.7999999999999999
    vertex 1.8359993367112373 0.21050062384406526 0.7999999999999999
    vertex 1.83752520854734 0.6212063232325215 0.7999999999999999
  endloop
endfacet
facet normal 3.728746195284226e-32 -3.5853328800809875e-33 1.0
  outer loop
    vertex 1.83752520854734 0.6212063232325215 0.7999999999999999
    vertex 1.8359993367112373 0.21050062384406526 0.7999999999999999
    vertex 2.330578354120905 0.1729888959311304 0.7999999999999999
  endloop
endfacet
facet normal 3.728746195284226e-32 -3.5853328800809875e-33 1.0
  outer loop
    vertex 1.83752520854734 0.6212063232325215 0.7999999999999999
    vertex 2.330578354120905 0.1729888959311304 0.7999999999999999
    vertex 2.2257537762011226 0.570095062666124 0.7999999999999999
  endloop
endfacet
facet normal 3.728746195284226e-32 -3.5853328800809875e-33 1.0
  outer loop
    vertex 2.2257537762011226 0.570095062666124 0.7999999999999999
    vertex 2.330578354120905 0.1729888959311304 0.7999999999999999
    vertex 2.6139823438549024 0.6212063232325215 0.7999999999999999
  endloop
endfacet
facet normal 3.728746195284226e-32 -3.5853328800809875e-33 1.0
  outer loop
    vertex 2.6139823438549024 0.6212063232325215 0.7999999999999999
    vertex 2.330578354120905 0.1729888959311304 0.7999999999999999
    vertex 2.8180137497761457 0.2647618181650103 0.7999999999999999
  endloop
endfacet
facet normal 3.728746195284226e-32 -3.5853328800809875e-33 1.0
  outer loop
    vertex 2.6139823438549024 0.6212063232325215 0.7999999999999999
    vertex 2.8180137497761457 0.2647618181650103 0.7999999999999999
    vertex 2.9757537762011212 0.7710569569894656 0.7999999999999999
  endloop
endfacet
facet normal 3.728746195284226e-32 -3.5853328800809875e-33 1.0
  outer loop
    vertex 2.9757537762011212 0.7710569569894656 0.7999999999999999
    vertex 2.8180137497761457 0.2647618181650103 0.7999999999999999
    vertex 3.265087606988133 0.4795652175573937 0.7999999999999999
  endloop
endfacet
facet normal 3.728746195284226e-32 -3.5853328800809875e-33 1.0
  outer loop
    vertex 2.9757537762011212 0.7710569569894656 0.7999999999999999
    vertex 3.265087606988133 0.4795652175573937 0.7999999999999999
    vertex 3.2864139479809444 1.0094348908863033 0.7999999999999999
  endloop
endfacet
facet normal 3.728746195284226e-32 -3.5853328800809875e-33 1.0
  outer loop
    vertex 3.2864139479809444 1.0094348908863033 0.7999999999999999
    vertex 3.265087606988133 0.4795652175573937 0.7999999999999999
    vertex 3.64133258121235 0.8027605974190885 0.7999999999999999
  endloop
endfacet
facet normal 3.728746195284226e-32 -3.5853328800809875e-33 1.0
  outer loop
    vertex 3.2864139479809444 1.0094348908863033 0.7999999999999999
    vertex 3.64133258121235 0.8027605974190885 0.7999999999999999
    vertex 3.5247918818777806 1.320095062666123 0.7999999999999999
  endloop
endfacet
facet normal 3.728746195284226e-32 -3.5853328800809875e-33 1.0
  outer loop
    vertex 3.5247918818777806 1.320095062666123 0.7999999999999999
    vertex 3.64133258121235 0.8027605974190885 0.7999999999999999
    vertex 3.6746425156347255 1.6818664950123423 0.7999999999999999
  endloop
endfacet
facet normal 3.728746195284226e-32 -3.5853328800809875e-33 1.0
  outer loop
    vertex 3.6746425156347255 1.6818664950123423 0.7999999999999999
    vertex 3.64133258121235 0.8027605974190885 0.7999999999999999
    vertex 3.9211081992296375 1.212322726718139 0.7999999999999999
  endloop
endfacet
facet normal 3.728746195284226e-32 -3.5853328800809875e-33 1.0
  outer loop
    vertex 3.6746425156347255 1.6818664950123423 0.7999999999999999
    vertex 3.9211081992296375 1.212322726718139 0.7999999999999999
    vertex 3.7257537762011235 2.0700950626661245 0.7999999999999999
  endloop
endfacet
facet normal 3.728746195284226e-32 -3.5853328800809875e-33 1.0
  outer loop
    vertex 3.7257537762011235 2.0700950626661245 0.7999999999999999
    vertex 3.9211081992296375 1.212322726718139 0.7999999999999999
    vertex 3.8162836213098537 3.109428893453136 0.7999999999999999
  endloop
endfacet
facet normal 3.728746195284226e-32 -3.5853328800809875e-33 1.0
  outer loop
    vertex 3.8162836213098537 3.109428893453136 0.7999999999999999
    vertex 3.9211081992296375 1.212322726718139 0.7999999999999999
    vertex 4.0310870207022385 2.662355036241148 0.7999999999999999
  endloop
endfacet
facet normal 3.728746195284226e-32 -3.5853328800809875e-33 1.0
  outer loop
    vertex 4.0310870207022385 2.662355036241148 0.7999999999999999
    vertex 3.9211081992296375 1.212322726718139 0.7999999999999999
    vertex 4.085348215023183 1.6803406231762383 0.7999999999999999
  endloop
endfacet
facet normal 3.728746195284226e-32 -3.5853328800809875e-33 1.0
  outer loop
    vertex 4.0310870207022385 2.662355036241148 0.7999999999999999
    vertex 4.085348215023183 1.6803406231762383 0.7999999999999999
    vertex 4.122859942936119 2.174919640585907 0.7999999999999999
  endloop
endfacet
facet normal 3.728746195284226e-32 -3.5853328800809875e-33 1.0
  outer loop
    vertex 0.42042053170000887 1.4778350890911007 0.7999999999999999
    vertex 0.3661593373790638 2.4598495021560103 0.7999999999999999
    vertex 0.3286476094661289 1.9652704847463418 0.7999999999999999
  endloop
endfacet
facet normal 3.728746195284226e-32 -3.5853328800809875e-33 1.0
  outer loop
    vertex 0.3661593373790638 2.4598495021560103 0.7999999999999999
    vertex 0.42042053170000887 1.4778350890911007 0.7999999999999999
    vertex 0.5303993531726097 2.9278673986141075 0.7999999999999999
  endloop
endfacet
facet normal 3.728746195284226e-32 -3.5853328800809875e-33 1.0
  outer loop
    vertex 0.5303993531726097 2.9278673986141075 0.7999999999999999
    vertex 0.42042053170000887 1.4778350890911007 0.7999999999999999
    vertex 0.6352239310923922 1.0307612318791135 0.7999999999999999
  endloop
endfacet
facet normal 3.728746195284226e-32 -3.5853328800809875e-33 1.0
  outer loop
    vertex 0.5303993531726097 2.9278673986141075 0.7999999999999999
    vertex 0.6352239310923922 1.0307612318791135 0.7999999999999999
    vertex 0.8101749711898957 3.337429527913161 0.7999999999999999
  endloop
endfacet
facet normal 3.728746195284226e-32 -3.5853328800809875e-33 1.0
  outer loop
    vertex 0.8101749711898957 3.337429527913161 0.7999999999999999
    vertex 0.6352239310923922 1.0307612318791135 0.7999999999999999
    vertex 0.7257537762011225 2.0700950626661245 0.7999999999999999
  endloop
endfacet
facet normal 3.728746195284226e-32 -3.5853328800809875e-33 1.0
  outer loop
    vertex 0.8101749711898957 3.337429527913161 0.7999999999999999
    vertex 0.7257537762011225 2.0700950626661245 0.7999999999999999
    vertex 0.7768650367675202 2.4583236303199065 0.7999999999999999
  endloop
endfacet
facet normal 3.728746195284226e-32 -3.5853328800809875e-33 1.0
  outer loop
    vertex 0.8101749711898957 3.337429527913161 0.7999999999999999
    vertex 0.7768650367675202 2.4583236303199065 0.7999999999999999
    vertex 0.9267156705244652 2.8200950626661268 0.7999999999999999
  endloop
endfacet
facet normal 3.728746195284226e-32 -3.5853328800809875e-33 1.0
  outer loop
    vertex 0.8101749711898957 3.337429527913161 0.7999999999999999
    vertex 0.9267156705244652 2.8200950626661268 0.7999999999999999
    vertex 1.1864199454141122 3.6606249077748556 0.7999999999999999
  endloop
endfacet
facet normal 3.728746195284226e-32 -3.5853328800809875e-33 1.0
  outer loop
    vertex 1.1864199454141122 3.6606249077748556 0.7999999999999999
    vertex 0.9267156705244652 2.8200950626661268 0.7999999999999999
    vertex 1.1650936044213014 3.130755234445946 0.7999999999999999
  endloop
endfacet
facet normal 3.728746195284226e-32 -3.5853328800809875e-33 1.0
  outer loop
    vertex 1.1864199454141122 3.6606249077748556 0.7999999999999999
    vertex 1.1650936044213014 3.130755234445946 0.7999999999999999
    vertex 1.4757537762011232 3.369133168342784 0.7999999999999999
  endloop
endfacet
facet normal 3.728746195284226e-32 -3.5853328800809875e-33 1.0
  outer loop
    vertex 1.1864199454141122 3.6606249077748556 0.7999999999999999
    vertex 1.4757537762011232 3.369133168342784 0.7999999999999999
    vertex 1.6334938026260997 3.8754283071672386 0.7999999999999999
  endloop
endfacet
facet normal 3.728746195284226e-32 -3.5853328800809875e-33 1.0
  outer loop
    vertex 1.6334938026260997 3.8754283071672386 0.7999999999999999
    vertex 1.4757537762011232 3.369133168342784 0.7999999999999999
    vertex 1.8375252085473412 3.5189838020997275 0.7999999999999999
  endloop
endfacet
facet normal 3.728746195284226e-32 -3.5853328800809875e-33 1.0
  outer loop
    vertex 1.6334938026260997 3.8754283071672386 0.7999999999999999
    vertex 1.8375252085473412 3.5189838020997275 0.7999999999999999
    vertex 2.12092919828134 3.9672012294011187 0.7999999999999999
  endloop
endfacet
facet normal 3.728746195284226e-32 -3.5853328800809875e-33 1.0
  outer loop
    vertex 2.12092919828134 3.9672012294011187 0.7999999999999999
    vertex 1.8375252085473412 3.5189838020997275 0.7999999999999999
    vertex 2.2257537762011226 3.570095062666125 0.7999999999999999
  endloop
endfacet
facet normal 3.728746195284226e-32 -3.5853328800809875e-33 1.0
  outer loop
    vertex 2.12092919828134 3.9672012294011187 0.7999999999999999
    vertex 2.2257537762011226 3.570095062666125 0.7999999999999999
    vertex 2.615508215691008 3.929689501488184 0.7999999999999999
  endloop
endfacet
facet normal 3.728746195284226e-32 -3.5853328800809875e-33 1.0
  outer loop
    vertex 2.615508215691008 3.929689501488184 0.7999999999999999
    vertex 2.2257537762011226 3.570095062666125 0.7999999999999999
    vertex 2.6139823438549037 3.5189838020997275 0.7999999999999999
  endloop
endfacet
facet normal 3.728746195284226e-32 -3.5853328800809875e-33 1.0
  outer loop
    vertex 2.615508215691008 3.929689501488184 0.7999999999999999
    vertex 2.6139823438549037 3.5189838020997275 0.7999999999999999
    vertex 2.9757537762011226 3.369133168342784 0.7999999999999999
  endloop
endfacet
facet normal 3.728746195284226e-32 -3.5853328800809875e-33 1.0
  outer loop
    vertex 2.615508215691008 3.929689501488184 0.7999999999999999
    vertex 2.9757537762011226 3.369133168342784 0.7999999999999999
    vertex 3.0835261121491064 3.765449485694638 0.7999999999999999
  endloop
endfacet
facet normal 3.728746195284226e-32 -3.5853328800809875e-33 1.0
  outer loop
    vertex 3.0835261121491064 3.765449485694638 0.7999999999999999
    vertex 2.9757537762011226 3.369133168342784 0.7999999999999999
    vertex 3.2864139479809444 3.130755234445946 0.7999999999999999
  endloop
endfacet
facet normal 3.728746195284226e-32 -3.5853328800809875e-33 1.0
  outer loop
    vertex 3.0835261121491064 3.765449485694638 0.7999999999999999
    vertex 3.2864139479809444 3.130755234445946 0.7999999999999999
    vertex 3.493088241448159 3.4856738676773533 0.7999999999999999
  endloop
endfacet
facet normal 3.728746195284226e-32 -3.5853328800809875e-33 1.0
  outer loop
    vertex 3.493088241448159 3.4856738676773533 0.7999999999999999
    vertex 3.2864139479809444 3.130755234445946 0.7999999999999999
    vertex 3.5247918818777806 2.8200950626661236 0.7999999999999999
  endloop
endfacet
facet normal 3.728746195284226e-32 -3.5853328800809875e-33 1.0
  outer loop
    vertex 3.493088241448159 3.4856738676773533 0.7999999999999999
    vertex 3.5247918818777806 2.8200950626661236 0.7999999999999999
    vertex 3.8162836213098537 3.109428893453136 0.7999999999999999
  endloop
endfacet
facet normal 3.728746195284226e-32 -3.5853328800809875e-33 1.0
  outer loop
    vertex 3.8162836213098537 3.109428893453136 0.7999999999999999
    vertex 3.5247918818777806 2.8200950626661236 0.7999999999999999
    vertex 3.6746425156347255 2.4583236303199065 0.7999999999999999
  endloop
endfacet
facet normal 3.728746195284226e-32 -3.5853328800809875e-33 1.0
  outer loop
    vertex 3.8162836213098537 3.109428893453136 0.7999999999999999
    vertex 3.6746425156347255 2.4583236303199065 0.7999999999999999
    vertex 3.7257537762011235 2.0700950626661245 0.7999999999999999
  endloop
endfacet
facet normal 0.18502622805544253 -0.982733582885807 0.0
  outer loop
    vertex 2.8180137497761457 0.2647618181650103 0.7999999999999999
    vertex 2.330578354120905 0.1729888959311304 -1.762479051592436e-16
    vertex 2.8180137497761457 0.2647618181650103 -1.762479051592436e-16
  endloop
endfacet
facet normal 0.18502622805544253 -0.982733582885807 0.0
  outer loop
    vertex 2.330578354120905 0.1729888959311304 -1.762479051592436e-16
    vertex 2.8180137497761457 0.2647618181650103 0.7999999999999999
    vertex 2.330578354120905 0.1729888959311304 0.7999999999999999
  endloop
endfacet
facet normal -0.901359436406758 -0.43307177973228855 0.0
  outer loop
    vertex 0.42042053170000887 1.4778350890911007 0.7999999999999999
    vertex 0.6352239310923922 1.0307612318791135 -1.762479051592436e-16
    vertex 0.6352239310923922 1.0307612318791135 0.7999999999999999
  endloop
endfacet
facet normal -0.901359436406758 -0.43307177973228855 0.0
  outer loop
    vertex 0.6352239310923922 1.0307612318791135 -1.762479051592436e-16
    vertex 0.42042053170000887 1.4778350890911007 0.7999999999999999
    vertex 0.42042053170000887 1.4778350890911007 -1.762479051592436e-16
  endloop
endfacet
facet normal 0.825730881113677 -0.5640642800029361 -0.0
  outer loop
    vertex 3.9211081992296375 1.212322726718139 -1.762479051592436e-16
    vertex 3.64133258121235 0.8027605974190885 0.7999999999999999
    vertex 3.64133258121235 0.8027605974190885 -1.762479051592436e-16
  endloop
endfacet
facet normal 0.825730881113677 -0.5640642800029361 -0.0
  outer loop
    vertex 3.64133258121235 0.8027605974190885 0.7999999999999999
    vertex 3.9211081992296375 1.212322726718139 -1.762479051592436e-16
    vertex 3.9211081992296375 1.212322726718139 0.7999999999999999
  endloop
endfacet
facet normal 0.6516042053053306 -0.7585591339034874 0.0
  outer loop
    vertex 3.64133258121235 0.8027605974190885 0.7999999999999999
    vertex 3.265087606988133 0.4795652175573937 -1.762479051592436e-16
    vertex 3.64133258121235 0.8027605974190885 -1.762479051592436e-16
  endloop
endfacet
facet normal 0.6516042053053306 -0.7585591339034874 0.0
  outer loop
    vertex 3.265087606988133 0.4795652175573937 -1.762479051592436e-16
    vertex 3.64133258121235 0.8027605974190885 0.7999999999999999
    vertex 3.265087606988133 0.4795652175573937 0.7999999999999999
  endloop
endfacet
facet normal -0.7585591339034851 -0.651604205305333 0.0
  outer loop
    vertex 0.6352239310923922 1.0307612318791135 0.7999999999999999
    vertex 0.9584193109540867 0.6545162576548987 -1.762479051592436e-16
    vertex 0.9584193109540867 0.6545162576548987 0.7999999999999999
  endloop
endfacet
facet normal -0.7585591339034851 -0.651604205305333 0.0
  outer loop
    vertex 0.9584193109540867 0.6545162576548987 -1.762479051592436e-16
    vertex 0.6352239310923922 1.0307612318791135 0.7999999999999999
    vertex 0.6352239310923922 1.0307612318791135 -1.762479051592436e-16
  endloop
endfacet
facet normal -0.07562855529307859 -0.9971360597352209 0.0
  outer loop
    vertex 2.330578354120905 0.1729888959311304 0.7999999999999999
    vertex 1.8359993367112373 0.21050062384406526 -1.762479051592436e-16
    vertex 2.330578354120905 0.1729888959311304 -1.762479051592436e-16
  endloop
endfacet
facet normal -0.07562855529307859 -0.9971360597352209 0.0
  outer loop
    vertex 1.8359993367112373 0.21050062384406526 -1.762479051592436e-16
    vertex 2.330578354120905 0.1729888959311304 0.7999999999999999
    vertex 1.8359993367112373 0.21050062384406526 0.7999999999999999
  endloop
endfacet
facet normal -0.9827335828858073 -0.18502622805544225 0.0
  outer loop
    vertex 0.3286476094661289 1.9652704847463418 0.7999999999999999
    vertex 0.42042053170000887 1.4778350890911007 -1.762479051592436e-16
    vertex 0.42042053170000887 1.4778350890911007 0.7999999999999999
  endloop
endfacet
facet normal -0.9827335828858073 -0.18502622805544225 0.0
  outer loop
    vertex 0.42042053170000887 1.4778350890911007 -1.762479051592436e-16
    vertex 0.3286476094661289 1.9652704847463418 0.7999999999999999
    vertex 0.3286476094661289 1.9652704847463418 -1.762479051592436e-16
  endloop
endfacet
facet normal -0.9971360597352209 0.07562855529307848 0.0
  outer loop
    vertex 0.3661593373790638 2.4598495021560103 0.7999999999999999
    vertex 0.3286476094661289 1.9652704847463418 -1.762479051592436e-16
    vertex 0.3286476094661289 1.9652704847463418 0.7999999999999999
  endloop
endfacet
facet normal -0.9971360597352209 0.07562855529307848 0.0
  outer loop
    vertex 0.3286476094661289 1.9652704847463418 -1.762479051592436e-16
    vertex 0.3661593373790638 2.4598495021560103 0.7999999999999999
    vertex 0.3661593373790638 2.4598495021560103 -1.762479051592436e-16
  endloop
endfacet
facet normal -0.9435853619589308 0.33112937758047645 0.0
  outer loop
    vertex 0.5303993531726097 2.9278673986141075 0.7999999999999999
    vertex 0.3661593373790638 2.4598495021560103 -1.762479051592436e-16
    vertex 0.3661593373790638 2.4598495021560103 0.7999999999999999
  endloop
endfacet
facet normal -0.9435853619589308 0.33112937758047645 0.0
  outer loop
    vertex 0.3661593373790638 2.4598495021560103 -1.762479051592436e-16
    vertex 0.5303993531726097 2.9278673986141075 0.7999999999999999
    vertex 0.5303993531726097 2.9278673986141075 -1.762479051592436e-16
  endloop
endfacet
facet normal -0.8257308811136803 0.5640642800029313 0.0
  outer loop
    vertex 0.8101749711898957 3.337429527913161 0.7999999999999999
    vertex 0.5303993531726097 2.9278673986141075 -1.762479051592436e-16
    vertex 0.5303993531726097 2.9278673986141075 0.7999999999999999
  endloop
endfacet
facet normal -0.8257308811136803 0.5640642800029313 0.0
  outer loop
    vertex 0.5303993531726097 2.9278673986141075 -1.762479051592436e-16
    vertex 0.8101749711898957 3.337429527913161 0.7999999999999999
    vertex 0.8101749711898957 3.337429527913161 -1.762479051592436e-16
  endloop
endfacet
facet normal -0.6516042053053311 0.7585591339034867 -0.0
  outer loop
    vertex 0.8101749711898957 3.337429527913161 0.7999999999999999
    vertex 1.1864199454141122 3.6606249077748556 -1.762479051592436e-16
    vertex 0.8101749711898957 3.337429527913161 -1.762479051592436e-16
  endloop
endfacet
facet normal -0.6516042053053311 0.7585591339034867 -0.0
  outer loop
    vertex 1.1864199454141122 3.6606249077748556 -1.762479051592436e-16
    vertex 0.8101749711898957 3.337429527913161 0.7999999999999999
    vertex 1.1864199454141122 3.6606249077748556 0.7999999999999999
  endloop
endfacet
facet normal -0.43307177973228855 0.901359436406758 -0.0
  outer loop
    vertex 1.1864199454141122 3.6606249077748556 0.7999999999999999
    vertex 1.6334938026260997 3.8754283071672386 -1.762479051592436e-16
    vertex 1.1864199454141122 3.6606249077748556 -1.762479051592436e-16
  endloop
endfacet
facet normal -0.43307177973228855 0.901359436406758 -0.0
  outer loop
    vertex 1.6334938026260997 3.8754283071672386 -1.762479051592436e-16
    vertex 1.1864199454141122 3.6606249077748556 0.7999999999999999
    vertex 1.6334938026260997 3.8754283071672386 0.7999999999999999
  endloop
endfacet
facet normal -0.18502622805544253 0.982733582885807 -0.0
  outer loop
    vertex 1.6334938026260997 3.8754283071672386 0.7999999999999999
    vertex 2.12092919828134 3.9672012294011187 -1.762479051592436e-16
    vertex 1.6334938026260997 3.8754283071672386 -1.762479051592436e-16
  endloop
endfacet
facet normal -0.18502622805544253 0.982733582885807 -0.0
  outer loop
    vertex 2.12092919828134 3.9672012294011187 -1.762479051592436e-16
    vertex 1.6334938026260997 3.8754283071672386 0.7999999999999999
    vertex 2.12092919828134 3.9672012294011187 0.7999999999999999
  endloop
endfacet
facet normal 0.07562855529307859 0.9971360597352209 -0.0
  outer loop
    vertex 2.12092919828134 3.9672012294011187 0.7999999999999999
    vertex 2.615508215691008 3.929689501488184 -1.762479051592436e-16
    vertex 2.12092919828134 3.9672012294011187 -1.762479051592436e-16
  endloop
endfacet
facet normal 0.07562855529307859 0.9971360597352209 -0.0
  outer loop
    vertex 2.615508215691008 3.929689501488184 -1.762479051592436e-16
    vertex 2.12092919828134 3.9672012294011187 0.7999999999999999
    vertex 2.615508215691008 3.929689501488184 0.7999999999999999
  endloop
endfacet
facet normal 0.33112937758047534 0.9435853619589313 -0.0
  outer loop
    vertex 2.615508215691008 3.929689501488184 0.7999999999999999
    vertex 3.0835261121491064 3.765449485694638 -1.762479051592436e-16
    vertex 2.615508215691008 3.929689501488184 -1.762479051592436e-16
  endloop
endfacet
facet normal 0.33112937758047534 0.9435853619589313 -0.0
  outer loop
    vertex 3.0835261121491064 3.765449485694638 -1.762479051592436e-16
    vertex 2.615508215691008 3.929689501488184 0.7999999999999999
    vertex 3.0835261121491064 3.765449485694638 0.7999999999999999
  endloop
endfacet
facet normal 0.5640642800029303 0.825730881113681 -0.0
  outer loop
    vertex 3.0835261121491064 3.765449485694638 0.7999999999999999
    vertex 3.493088241448159 3.4856738676773533 -1.762479051592436e-16
    vertex 3.0835261121491064 3.765449485694638 -1.762479051592436e-16
  endloop
endfacet
facet normal 0.5640642800029303 0.825730881113681 -0.0
  outer loop
    vertex 3.493088241448159 3.4856738676773533 -1.762479051592436e-16
    vertex 3.0835261121491064 3.765449485694638 0.7999999999999999
    vertex 3.493088241448159 3.4856738676773533 0.7999999999999999
  endloop
endfacet
facet normal 0.7585591339034878 0.65160420530533 -0.0
  outer loop
    vertex 3.493088241448159 3.4856738676773533 -1.762479051592436e-16
    vertex 3.8162836213098537 3.109428893453136 0.7999999999999999
    vertex 3.8162836213098537 3.109428893453136 -1.762479051592436e-16
  endloop
endfacet
facet normal 0.7585591339034878 0.65160420530533 -0.0
  outer loop
    vertex 3.8162836213098537 3.109428893453136 0.7999999999999999
    vertex 3.493088241448159 3.4856738676773533 -1.762479051592436e-16
    vertex 3.493088241448159 3.4856738676773533 0.7999999999999999
  endloop
endfacet
facet normal 0.9013594364067571 0.43307177973229055 -0.0
  outer loop
    vertex 3.8162836213098537 3.109428893453136 -1.762479051592436e-16
    vertex 4.0310870207022385 2.662355036241148 0.7999999999999999
    vertex 4.0310870207022385 2.662355036241148 -1.762479051592436e-16
  endloop
endfacet
facet normal 0.9013594364067571 0.43307177973229055 -0.0
  outer loop
    vertex 4.0310870207022385 2.662355036241148 0.7999999999999999
    vertex 3.8162836213098537 3.109428893453136 -1.762479051592436e-16
    vertex 3.8162836213098537 3.109428893453136 0.7999999999999999
  endloop
endfacet
facet normal 0.9827335828858073 0.18502622805544225 -0.0
  outer loop
    vertex 4.0310870207022385 2.662355036241148 -1.762479051592436e-16
    vertex 4.122859942936119 2.174919640585907 0.7999999999999999
    vertex 4.122859942936119 2.174919640585907 -1.762479051592436e-16
  endloop
endfacet
facet normal 0.9827335828858073 0.18502622805544225 -0.0
  outer loop
    vertex 4.122859942936119 2.174919640585907 0.7999999999999999
    vertex 4.0310870207022385 2.662355036241148 -1.762479051592436e-16
    vertex 4.0310870207022385 2.662355036241148 0.7999999999999999
  endloop
endfacet
endsolid Spacer_for_ballheads_M3_800um
