solid Spacer_for_ballheads_M3_1.8mm
facet normal 0.0 0.0 -1.0
  outer loop
    vertex 1.0459459612660764 4.231239111440754 0.0
    vertex 0.7486960268897135 2.7218490255830035 0.0
    vertex 0.6762671602270899 3.7747978853386845 0.0
  endloop
endfacet
facet normal 0.0 0.0 -1.0
  outer loop
    vertex 0.7486960268897135 2.7218490255830035 0.0
    vertex 1.0459459612660764 4.231239111440754 0.0
    vertex 0.8433836557205988 3.195422643933638 0.0
  endloop
endfacet
facet normal 0.0 0.0 -1.0
  outer loop
    vertex 0.8433836557205988 3.195422643933638 0.0
    vertex 1.0459459612660764 4.231239111440754 0.0
    vertex 1.057414753525681 3.6283526708706466 0.0
  endloop
endfacet
facet normal 0.0 0.0 -1.0
  outer loop
    vertex 1.057414753525681 3.6283526708706466 0.0
    vertex 1.0459459612660764 4.231239111440754 0.0
    vertex 1.5211639449063732 4.576447565636237 0.0
  endloop
endfacet
facet normal 0.0 0.0 -1.0
  outer loop
    vertex 1.057414753525681 3.6283526708706466 0.0
    vertex 1.5211639449063732 4.576447565636237 0.0
    vertex 1.3762034546926563 3.9911356405089684 0.0
  endloop
endfacet
facet normal 0.0 0.0 -1.0
  outer loop
    vertex 1.3762034546926563 3.9911356405089684 0.0
    vertex 1.5211639449063732 4.576447565636237 0.0
    vertex 1.778024836060234 4.25904849299496 0.0
  endloop
endfacet
facet normal 0.0 0.0 -1.0
  outer loop
    vertex 1.778024836060234 4.25904849299496 0.0
    vertex 1.5211639449063732 4.576447565636237 0.0
    vertex 2.069535790897744 4.786897862255652 0.0
  endloop
endfacet
facet normal 0.0 0.0 -1.0
  outer loop
    vertex 1.778024836060234 4.25904849299496 0.0
    vertex 2.069535790897744 4.786897862255652 0.0
    vertex 2.235495434529442 4.4138334101786185 0.0
  endloop
endfacet
facet normal 0.0 0.0 -1.0
  outer loop
    vertex 2.235495434529442 4.4138334101786185 0.0
    vertex 2.069535790897744 4.786897862255652 0.0
    vertex 2.6536908641631993 4.848248161369948 0.0
  endloop
endfacet
facet normal 0.0 0.0 -1.0
  outer loop
    vertex 2.235495434529442 4.4138334101786185 0.0
    vertex 2.6536908641631993 4.848248161369948 0.0
    vertex 2.717439384820514 4.444942055748049 0.0
  endloop
endfacet
facet normal 0.0 0.0 -1.0
  outer loop
    vertex 2.717439384820514 4.444942055748049 0.0
    vertex 2.6536908641631993 4.848248161369948 0.0
    vertex 3.2338199618216024 4.756317541480647 0.0
  endloop
endfacet
facet normal 0.0 0.0 -1.0
  outer loop
    vertex 2.717439384820514 4.444942055748049 0.0
    vertex 3.2338199618216024 4.756317541480647 0.0
    vertex 3.1910130031711477 4.350254426917164 0.0
  endloop
endfacet
facet normal 0.0 0.0 -1.0
  outer loop
    vertex 3.1910130031711477 4.350254426917164 0.0
    vertex 3.2338199618216024 4.756317541480647 0.0
    vertex 3.6239430301081565 4.136223329112082 0.0
  endloop
endfacet
facet normal 0.0 0.0 -1.0
  outer loop
    vertex 3.6239430301081565 4.136223329112082 0.0
    vertex 3.2338199618216024 4.756317541480647 0.0
    vertex 3.770388244576194 4.517370922410674 0.0
  endloop
endfacet
facet normal 0.0 0.0 -1.0
  outer loop
    vertex 3.6239430301081565 4.136223329112082 0.0
    vertex 3.770388244576194 4.517370922410674 0.0
    vertex 3.9867259997464797 3.8174346279451066 0.0
  endloop
endfacet
facet normal 0.0 0.0 -1.0
  outer loop
    vertex 3.9867259997464797 3.8174346279451066 0.0
    vertex 3.770388244576194 4.517370922410674 0.0
    vertex 4.226829470678264 4.147692121371687 0.0
  endloop
endfacet
facet normal 0.0 0.0 -1.0
  outer loop
    vertex 3.9867259997464797 3.8174346279451066 0.0
    vertex 4.226829470678264 4.147692121371687 0.0
    vertex 4.25463885223247 3.4156132465775277 0.0
  endloop
endfacet
facet normal 0.0 0.0 -1.0
  outer loop
    vertex 4.25463885223247 3.4156132465775277 0.0
    vertex 4.226829470678264 4.147692121371687 0.0
    vertex 4.572037924873747 3.6724741377313883 0.0
  endloop
endfacet
facet normal 0.0 0.0 -1.0
  outer loop
    vertex 4.25463885223247 3.4156132465775277 0.0
    vertex 4.572037924873747 3.6724741377313883 0.0
    vertex 4.4094237694161285 2.9581426481083195 0.0
  endloop
endfacet
facet normal 0.0 0.0 -1.0
  outer loop
    vertex 4.4094237694161285 2.9581426481083195 0.0
    vertex 4.572037924873747 3.6724741377313883 0.0
    vertex 4.44053241498556 2.4761986978172486 0.0
  endloop
endfacet
facet normal 0.0 0.0 -1.0
  outer loop
    vertex 4.44053241498556 2.4761986978172486 0.0
    vertex 4.572037924873747 3.6724741377313883 0.0
    vertex 4.512961281648183 1.4232498380615675 0.0
  endloop
endfacet
facet normal 0.0 0.0 -1.0
  outer loop
    vertex 4.512961281648183 1.4232498380615675 0.0
    vertex 4.572037924873747 3.6724741377313883 0.0
    vertex 4.751907900718157 1.9598181208161591 0.0
  endloop
endfacet
facet normal 0.0 0.0 -1.0
  outer loop
    vertex 4.751907900718157 1.9598181208161591 0.0
    vertex 4.572037924873747 3.6724741377313883 0.0
    vertex 4.782488221493162 3.1241022917400176 0.0
  endloop
endfacet
facet normal 0.0 0.0 -1.0
  outer loop
    vertex 4.751907900718157 1.9598181208161591 0.0
    vertex 4.782488221493162 3.1241022917400176 0.0
    vertex 4.843838520607458 2.5399472184745626 0.0
  endloop
endfacet
facet normal 0.0 0.0 -1.0
  outer loop
    vertex 0.43732054115711616 3.2382296025840915 0.0
    vertex 0.4067402203821107 2.0739454316602335 0.0
    vertex 0.34538992126781504 2.658100504925689 0.0
  endloop
endfacet
facet normal 0.0 0.0 -1.0
  outer loop
    vertex 0.4067402203821107 2.0739454316602335 0.0
    vertex 0.43732054115711616 3.2382296025840915 0.0
    vertex 0.6171905170015266 1.5255735856688633 0.0
  endloop
endfacet
facet normal 0.0 0.0 -1.0
  outer loop
    vertex 0.6171905170015266 1.5255735856688633 0.0
    vertex 0.43732054115711616 3.2382296025840915 0.0
    vertex 0.6762671602270899 3.7747978853386845 0.0
  endloop
endfacet
facet normal 0.0 0.0 -1.0
  outer loop
    vertex 0.6171905170015266 1.5255735856688633 0.0
    vertex 0.6762671602270899 3.7747978853386845 0.0
    vertex 0.779804672459145 2.239905075291932 0.0
  endloop
endfacet
facet normal 0.0 0.0 -1.0
  outer loop
    vertex 0.6171905170015266 1.5255735856688633 0.0
    vertex 0.779804672459145 2.239905075291932 0.0
    vertex 0.9623989711970087 1.050355602028566 0.0
  endloop
endfacet
facet normal 0.0 0.0 -1.0
  outer loop
    vertex 0.779804672459145 2.239905075291932 0.0
    vertex 0.6762671602270899 3.7747978853386845 0.0
    vertex 0.7486960268897135 2.7218490255830035 0.0
  endloop
endfacet
facet normal 0.0 0.0 -1.0
  outer loop
    vertex 0.9623989711970087 1.050355602028566 0.0
    vertex 0.779804672459145 2.239905075291932 0.0
    vertex 0.9345895896428036 1.7824344768227234 0.0
  endloop
endfacet
facet normal 0.0 0.0 -1.0
  outer loop
    vertex 0.9623989711970087 1.050355602028566 0.0
    vertex 0.9345895896428036 1.7824344768227234 0.0
    vertex 1.2025024421287933 1.3806130954551459 0.0
  endloop
endfacet
facet normal 0.0 0.0 -1.0
  outer loop
    vertex 0.9623989711970087 1.050355602028566 0.0
    vertex 1.2025024421287933 1.3806130954551459 0.0
    vertex 1.418840197299078 0.6806768009895797 0.0
  endloop
endfacet
facet normal 0.0 0.0 -1.0
  outer loop
    vertex 1.418840197299078 0.6806768009895797 0.0
    vertex 1.2025024421287933 1.3806130954551459 0.0
    vertex 1.5652854117671158 1.0618243942881707 0.0
  endloop
endfacet
facet normal 0.0 0.0 -1.0
  outer loop
    vertex 1.418840197299078 0.6806768009895797 0.0
    vertex 1.5652854117671158 1.0618243942881707 0.0
    vertex 1.9554084800536706 0.44173018191960567 0.0
  endloop
endfacet
facet normal 0.0 0.0 -1.0
  outer loop
    vertex 1.9554084800536706 0.44173018191960567 0.0
    vertex 1.5652854117671158 1.0618243942881707 0.0
    vertex 1.9982154387041244 0.8477932964830883 0.0
  endloop
endfacet
facet normal 0.0 0.0 -1.0
  outer loop
    vertex 1.9554084800536706 0.44173018191960567 0.0
    vertex 1.9982154387041244 0.8477932964830883 0.0
    vertex 2.535537577712073 0.3497995620303049 0.0
  endloop
endfacet
facet normal 0.0 0.0 -1.0
  outer loop
    vertex 2.535537577712073 0.3497995620303049 0.0
    vertex 1.9982154387041244 0.8477932964830883 0.0
    vertex 2.4717890570547585 0.753105667652203 0.0
  endloop
endfacet
facet normal 0.0 0.0 -1.0
  outer loop
    vertex 2.535537577712073 0.3497995620303049 0.0
    vertex 2.4717890570547585 0.753105667652203 0.0
    vertex 2.9537330073458303 0.7842143132216345 0.0
  endloop
endfacet
facet normal 0.0 0.0 -1.0
  outer loop
    vertex 2.535537577712073 0.3497995620303049 0.0
    vertex 2.9537330073458303 0.7842143132216345 0.0
    vertex 3.1196926509775285 0.41114986114460056 0.0
  endloop
endfacet
facet normal 0.0 0.0 -1.0
  outer loop
    vertex 3.1196926509775285 0.41114986114460056 0.0
    vertex 2.9537330073458303 0.7842143132216345 0.0
    vertex 3.411203605815038 0.9389992304052927 0.0
  endloop
endfacet
facet normal 0.0 0.0 -1.0
  outer loop
    vertex 3.1196926509775285 0.41114986114460056 0.0
    vertex 3.411203605815038 0.9389992304052927 0.0
    vertex 3.6680644969688982 0.6216001577640158 0.0
  endloop
endfacet
facet normal 0.0 0.0 -1.0
  outer loop
    vertex 3.6680644969688982 0.6216001577640158 0.0
    vertex 3.411203605815038 0.9389992304052927 0.0
    vertex 3.813024987182617 1.2069120828912827 0.0
  endloop
endfacet
facet normal 0.0 0.0 -1.0
  outer loop
    vertex 3.6680644969688982 0.6216001577640158 0.0
    vertex 3.813024987182617 1.2069120828912827 0.0
    vertex 4.143282480609196 0.9668086119594982 0.0
  endloop
endfacet
facet normal 0.0 0.0 -1.0
  outer loop
    vertex 4.143282480609196 0.9668086119594982 0.0
    vertex 3.813024987182617 1.2069120828912827 0.0
    vertex 4.131813688349592 1.5696950525296056 0.0
  endloop
endfacet
facet normal 0.0 0.0 -1.0
  outer loop
    vertex 4.143282480609196 0.9668086119594982 0.0
    vertex 4.131813688349592 1.5696950525296056 0.0
    vertex 4.345844786154673 2.0026250794666134 0.0
  endloop
endfacet
facet normal 0.0 0.0 -1.0
  outer loop
    vertex 4.143282480609196 0.9668086119594982 0.0
    vertex 4.345844786154673 2.0026250794666134 0.0
    vertex 4.512961281648183 1.4232498380615675 0.0
  endloop
endfacet
facet normal 0.0 0.0 -1.0
  outer loop
    vertex 4.512961281648183 1.4232498380615675 0.0
    vertex 4.345844786154673 2.0026250794666134 0.0
    vertex 4.44053241498556 2.4761986978172486 0.0
  endloop
endfacet
facet normal 0.0 0.0 1.0
  outer loop
    vertex 0.4067402203821107 2.0739454316602335 1.8000000000000003
    vertex 0.43732054115711616 3.2382296025840915 1.8000000000000003
    vertex 0.34538992126781504 2.658100504925689 1.8000000000000003
  endloop
endfacet
facet normal 0.0 0.0 1.0
  outer loop
    vertex 0.43732054115711616 3.2382296025840915 1.8000000000000003
    vertex 0.4067402203821107 2.0739454316602335 1.8000000000000003
    vertex 0.6171905170015266 1.5255735856688633 1.8000000000000003
  endloop
endfacet
facet normal 0.0 0.0 1.0
  outer loop
    vertex 0.43732054115711616 3.2382296025840915 1.8000000000000003
    vertex 0.6171905170015266 1.5255735856688633 1.8000000000000003
    vertex 0.6762671602270899 3.7747978853386845 1.8000000000000003
  endloop
endfacet
facet normal 0.0 0.0 1.0
  outer loop
    vertex 0.6762671602270899 3.7747978853386845 1.8000000000000003
    vertex 0.6171905170015266 1.5255735856688633 1.8000000000000003
    vertex 0.779804672459145 2.239905075291932 1.8000000000000003
  endloop
endfacet
facet normal 0.0 0.0 1.0
  outer loop
    vertex 0.779804672459145 2.239905075291932 1.8000000000000003
    vertex 0.6171905170015266 1.5255735856688633 1.8000000000000003
    vertex 0.9623989711970087 1.050355602028566 1.8000000000000003
  endloop
endfacet
facet normal 0.0 0.0 1.0
  outer loop
    vertex 0.6762671602270899 3.7747978853386845 1.8000000000000003
    vertex 0.779804672459145 2.239905075291932 1.8000000000000003
    vertex 0.7486960268897135 2.7218490255830035 1.8000000000000003
  endloop
endfacet
facet normal 0.0 0.0 1.0
  outer loop
    vertex 0.779804672459145 2.239905075291932 1.8000000000000003
    vertex 0.9623989711970087 1.050355602028566 1.8000000000000003
    vertex 0.9345895896428036 1.7824344768227234 1.8000000000000003
  endloop
endfacet
facet normal 0.0 0.0 1.0
  outer loop
    vertex 0.9345895896428036 1.7824344768227234 1.8000000000000003
    vertex 0.9623989711970087 1.050355602028566 1.8000000000000003
    vertex 1.2025024421287933 1.3806130954551459 1.8000000000000003
  endloop
endfacet
facet normal 0.0 0.0 1.0
  outer loop
    vertex 1.2025024421287933 1.3806130954551459 1.8000000000000003
    vertex 0.9623989711970087 1.050355602028566 1.8000000000000003
    vertex 1.418840197299078 0.6806768009895797 1.8000000000000003
  endloop
endfacet
facet normal 0.0 0.0 1.0
  outer loop
    vertex 1.2025024421287933 1.3806130954551459 1.8000000000000003
    vertex 1.418840197299078 0.6806768009895797 1.8000000000000003
    vertex 1.5652854117671158 1.0618243942881707 1.8000000000000003
  endloop
endfacet
facet normal 0.0 0.0 1.0
  outer loop
    vertex 1.5652854117671158 1.0618243942881707 1.8000000000000003
    vertex 1.418840197299078 0.6806768009895797 1.8000000000000003
    vertex 1.9554084800536706 0.44173018191960567 1.8000000000000003
  endloop
endfacet
facet normal 0.0 0.0 1.0
  outer loop
    vertex 1.5652854117671158 1.0618243942881707 1.8000000000000003
    vertex 1.9554084800536706 0.44173018191960567 1.8000000000000003
    vertex 1.9982154387041244 0.8477932964830883 1.8000000000000003
  endloop
endfacet
facet normal 0.0 0.0 1.0
  outer loop
    vertex 1.9982154387041244 0.8477932964830883 1.8000000000000003
    vertex 1.9554084800536706 0.44173018191960567 1.8000000000000003
    vertex 2.535537577712073 0.3497995620303049 1.8000000000000003
  endloop
endfacet
facet normal 0.0 0.0 1.0
  outer loop
    vertex 1.9982154387041244 0.8477932964830883 1.8000000000000003
    vertex 2.535537577712073 0.3497995620303049 1.8000000000000003
    vertex 2.4717890570547585 0.753105667652203 1.8000000000000003
  endloop
endfacet
facet normal 0.0 0.0 1.0
  outer loop
    vertex 2.4717890570547585 0.753105667652203 1.8000000000000003
    vertex 2.535537577712073 0.3497995620303049 1.8000000000000003
    vertex 2.9537330073458303 0.7842143132216345 1.8000000000000003
  endloop
endfacet
facet normal 0.0 0.0 1.0
  outer loop
    vertex 2.9537330073458303 0.7842143132216345 1.8000000000000003
    vertex 2.535537577712073 0.3497995620303049 1.8000000000000003
    vertex 3.1196926509775285 0.41114986114460056 1.8000000000000003
  endloop
endfacet
facet normal 0.0 0.0 1.0
  outer loop
    vertex 2.9537330073458303 0.7842143132216345 1.8000000000000003
    vertex 3.1196926509775285 0.41114986114460056 1.8000000000000003
    vertex 3.411203605815038 0.9389992304052927 1.8000000000000003
  endloop
endfacet
facet normal 0.0 0.0 1.0
  outer loop
    vertex 3.411203605815038 0.9389992304052927 1.8000000000000003
    vertex 3.1196926509775285 0.41114986114460056 1.8000000000000003
    vertex 3.6680644969688982 0.6216001577640158 1.8000000000000003
  endloop
endfacet
facet normal 0.0 0.0 1.0
  outer loop
    vertex 3.411203605815038 0.9389992304052927 1.8000000000000003
    vertex 3.6680644969688982 0.6216001577640158 1.8000000000000003
    vertex 3.813024987182617 1.2069120828912827 1.8000000000000003
  endloop
endfacet
facet normal 0.0 0.0 1.0
  outer loop
    vertex 3.813024987182617 1.2069120828912827 1.8000000000000003
    vertex 3.6680644969688982 0.6216001577640158 1.8000000000000003
    vertex 4.143282480609196 0.9668086119594982 1.8000000000000003
  endloop
endfacet
facet normal 0.0 0.0 1.0
  outer loop
    vertex 3.813024987182617 1.2069120828912827 1.8000000000000003
    vertex 4.143282480609196 0.9668086119594982 1.8000000000000003
    vertex 4.131813688349592 1.5696950525296056 1.8000000000000003
  endloop
endfacet
facet normal 0.0 0.0 1.0
  outer loop
    vertex 4.131813688349592 1.5696950525296056 1.8000000000000003
    vertex 4.143282480609196 0.9668086119594982 1.8000000000000003
    vertex 4.345844786154673 2.0026250794666134 1.8000000000000003
  endloop
endfacet
facet normal 0.0 0.0 1.0
  outer loop
    vertex 4.345844786154673 2.0026250794666134 1.8000000000000003
    vertex 4.143282480609196 0.9668086119594982 1.8000000000000003
    vertex 4.512961281648183 1.4232498380615675 1.8000000000000003
  endloop
endfacet
facet normal 0.0 0.0 1.0
  outer loop
    vertex 4.345844786154673 2.0026250794666134 1.8000000000000003
    vertex 4.512961281648183 1.4232498380615675 1.8000000000000003
    vertex 4.44053241498556 2.4761986978172486 1.8000000000000003
  endloop
endfacet
facet normal 0.0 0.0 1.0
  outer loop
    vertex 0.7486960268897135 2.7218490255830035 1.8000000000000003
    vertex 1.0459459612660764 4.231239111440754 1.8000000000000003
    vertex 0.6762671602270899 3.7747978853386845 1.8000000000000003
  endloop
endfacet
facet normal 0.0 0.0 1.0
  outer loop
    vertex 1.0459459612660764 4.231239111440754 1.8000000000000003
    vertex 0.7486960268897135 2.7218490255830035 1.8000000000000003
    vertex 0.8433836557205988 3.195422643933638 1.8000000000000003
  endloop
endfacet
facet normal 0.0 0.0 1.0
  outer loop
    vertex 1.0459459612660764 4.231239111440754 1.8000000000000003
    vertex 0.8433836557205988 3.195422643933638 1.8000000000000003
    vertex 1.057414753525681 3.6283526708706466 1.8000000000000003
  endloop
endfacet
facet normal 0.0 0.0 1.0
  outer loop
    vertex 1.0459459612660764 4.231239111440754 1.8000000000000003
    vertex 1.057414753525681 3.6283526708706466 1.8000000000000003
    vertex 1.5211639449063732 4.576447565636237 1.8000000000000003
  endloop
endfacet
facet normal 0.0 0.0 1.0
  outer loop
    vertex 1.5211639449063732 4.576447565636237 1.8000000000000003
    vertex 1.057414753525681 3.6283526708706466 1.8000000000000003
    vertex 1.3762034546926563 3.9911356405089684 1.8000000000000003
  endloop
endfacet
facet normal 0.0 0.0 1.0
  outer loop
    vertex 1.5211639449063732 4.576447565636237 1.8000000000000003
    vertex 1.3762034546926563 3.9911356405089684 1.8000000000000003
    vertex 1.778024836060234 4.25904849299496 1.8000000000000003
  endloop
endfacet
facet normal 0.0 0.0 1.0
  outer loop
    vertex 1.5211639449063732 4.576447565636237 1.8000000000000003
    vertex 1.778024836060234 4.25904849299496 1.8000000000000003
    vertex 2.069535790897744 4.786897862255652 1.8000000000000003
  endloop
endfacet
facet normal 0.0 0.0 1.0
  outer loop
    vertex 2.069535790897744 4.786897862255652 1.8000000000000003
    vertex 1.778024836060234 4.25904849299496 1.8000000000000003
    vertex 2.235495434529442 4.4138334101786185 1.8000000000000003
  endloop
endfacet
facet normal 0.0 0.0 1.0
  outer loop
    vertex 2.069535790897744 4.786897862255652 1.8000000000000003
    vertex 2.235495434529442 4.4138334101786185 1.8000000000000003
    vertex 2.6536908641631993 4.848248161369948 1.8000000000000003
  endloop
endfacet
facet normal 0.0 0.0 1.0
  outer loop
    vertex 2.6536908641631993 4.848248161369948 1.8000000000000003
    vertex 2.235495434529442 4.4138334101786185 1.8000000000000003
    vertex 2.717439384820514 4.444942055748049 1.8000000000000003
  endloop
endfacet
facet normal 0.0 0.0 1.0
  outer loop
    vertex 2.6536908641631993 4.848248161369948 1.8000000000000003
    vertex 2.717439384820514 4.444942055748049 1.8000000000000003
    vertex 3.2338199618216024 4.756317541480647 1.8000000000000003
  endloop
endfacet
facet normal 0.0 0.0 1.0
  outer loop
    vertex 3.2338199618216024 4.756317541480647 1.8000000000000003
    vertex 2.717439384820514 4.444942055748049 1.8000000000000003
    vertex 3.1910130031711477 4.350254426917164 1.8000000000000003
  endloop
endfacet
facet normal 0.0 0.0 1.0
  outer loop
    vertex 3.2338199618216024 4.756317541480647 1.8000000000000003
    vertex 3.1910130031711477 4.350254426917164 1.8000000000000003
    vertex 3.6239430301081565 4.136223329112082 1.8000000000000003
  endloop
endfacet
facet normal 0.0 0.0 1.0
  outer loop
    vertex 3.2338199618216024 4.756317541480647 1.8000000000000003
    vertex 3.6239430301081565 4.136223329112082 1.8000000000000003
    vertex 3.770388244576194 4.517370922410674 1.8000000000000003
  endloop
endfacet
facet normal 0.0 0.0 1.0
  outer loop
    vertex 3.770388244576194 4.517370922410674 1.8000000000000003
    vertex 3.6239430301081565 4.136223329112082 1.8000000000000003
    vertex 3.9867259997464797 3.8174346279451066 1.8000000000000003
  endloop
endfacet
facet normal 0.0 0.0 1.0
  outer loop
    vertex 3.770388244576194 4.517370922410674 1.8000000000000003
    vertex 3.9867259997464797 3.8174346279451066 1.8000000000000003
    vertex 4.226829470678264 4.147692121371687 1.8000000000000003
  endloop
endfacet
facet normal 0.0 0.0 1.0
  outer loop
    vertex 4.226829470678264 4.147692121371687 1.8000000000000003
    vertex 3.9867259997464797 3.8174346279451066 1.8000000000000003
    vertex 4.25463885223247 3.4156132465775277 1.8000000000000003
  endloop
endfacet
facet normal 0.0 0.0 1.0
  outer loop
    vertex 4.226829470678264 4.147692121371687 1.8000000000000003
    vertex 4.25463885223247 3.4156132465775277 1.8000000000000003
    vertex 4.572037924873747 3.6724741377313883 1.8000000000000003
  endloop
endfacet
facet normal 0.0 0.0 1.0
  outer loop
    vertex 4.572037924873747 3.6724741377313883 1.8000000000000003
    vertex 4.25463885223247 3.4156132465775277 1.8000000000000003
    vertex 4.4094237694161285 2.9581426481083195 1.8000000000000003
  endloop
endfacet
facet normal 0.0 0.0 1.0
  outer loop
    vertex 4.572037924873747 3.6724741377313883 1.8000000000000003
    vertex 4.4094237694161285 2.9581426481083195 1.8000000000000003
    vertex 4.44053241498556 2.4761986978172486 1.8000000000000003
  endloop
endfacet
facet normal 0.0 0.0 1.0
  outer loop
    vertex 4.572037924873747 3.6724741377313883 1.8000000000000003
    vertex 4.44053241498556 2.4761986978172486 1.8000000000000003
    vertex 4.512961281648183 1.4232498380615675 1.8000000000000003
  endloop
endfacet
facet normal 0.0 0.0 1.0
  outer loop
    vertex 4.572037924873747 3.6724741377313883 1.8000000000000003
    vertex 4.512961281648183 1.4232498380615675 1.8000000000000003
    vertex 4.751907900718157 1.9598181208161591 1.8000000000000003
  endloop
endfacet
facet normal 0.0 0.0 1.0
  outer loop
    vertex 4.572037924873747 3.6724741377313883 1.8000000000000003
    vertex 4.751907900718157 1.9598181208161591 1.8000000000000003
    vertex 4.782488221493162 3.1241022917400176 1.8000000000000003
  endloop
endfacet
facet normal 0.0 0.0 1.0
  outer loop
    vertex 4.782488221493162 3.1241022917400176 1.8000000000000003
    vertex 4.751907900718157 1.9598181208161591 1.8000000000000003
    vertex 4.843838520607458 2.5399472184745626 1.8000000000000003
  endloop
endfacet
facet normal -0.10444953285845199 0.9945301881218342 0.0
  outer loop
    vertex 2.069535790897744 4.786897862255652 1.8000000000000003
    vertex 2.6536908641631993 4.848248161369948 0.0
    vertex 2.069535790897744 4.786897862255652 0.0
  endloop
endfacet
facet normal -0.10444953285845199 0.9945301881218342 0.0
  outer loop
    vertex 2.6536908641631993 4.848248161369948 0.0
    vertex 2.069535790897744 4.786897862255652 1.8000000000000003
    vertex 2.6536908641631993 4.848248161369948 1.8000000000000003
  endloop
endfacet
facet normal 0.15651285228351838 0.9876759220868339 0.0
  outer loop
    vertex 2.6536908641631993 4.848248161369948 1.8000000000000003
    vertex 3.2338199618216024 4.756317541480647 0.0
    vertex 2.6536908641631993 4.848248161369948 0.0
  endloop
endfacet
facet normal 0.15651285228351838 0.9876759220868339 0.0
  outer loop
    vertex 3.2338199618216024 4.756317541480647 0.0
    vertex 2.6536908641631993 4.848248161369948 1.8000000000000003
    vertex 3.2338199618216024 4.756317541480647 1.8000000000000003
  endloop
endfacet
facet normal 0.4068091451920806 0.9135131741732513 0.0
  outer loop
    vertex 3.2338199618216024 4.756317541480647 1.8000000000000003
    vertex 3.770388244576194 4.517370922410674 0.0
    vertex 3.2338199618216024 4.756317541480647 0.0
  endloop
endfacet
facet normal 0.4068091451920806 0.9135131741732513 0.0
  outer loop
    vertex 3.770388244576194 4.517370922410674 0.0
    vertex 3.2338199618216024 4.756317541480647 1.8000000000000003
    vertex 3.770388244576194 4.517370922410674 1.8000000000000003
  endloop
endfacet
facet normal 0.6293820671397029 0.7770960130916608 0.0
  outer loop
    vertex 3.770388244576194 4.517370922410674 1.8000000000000003
    vertex 4.226829470678264 4.147692121371687 0.0
    vertex 3.770388244576194 4.517370922410674 0.0
  endloop
endfacet
facet normal 0.6293820671397029 0.7770960130916608 0.0
  outer loop
    vertex 4.226829470678264 4.147692121371687 0.0
    vertex 3.770388244576194 4.517370922410674 1.8000000000000003
    vertex 4.226829470678264 4.147692121371687 1.8000000000000003
  endloop
endfacet
facet normal 0.8090636413148002 0.5877210429297529 0.0
  outer loop
    vertex 4.226829470678264 4.147692121371687 0.0
    vertex 4.572037924873747 3.6724741377313883 1.8000000000000003
    vertex 4.572037924873747 3.6724741377313883 0.0
  endloop
endfacet
facet normal 0.8090636413148002 0.5877210429297529 0.0
  outer loop
    vertex 4.572037924873747 3.6724741377313883 1.8000000000000003
    vertex 4.226829470678264 4.147692121371687 0.0
    vertex 4.226829470678264 4.147692121371687 1.8000000000000003
  endloop
endfacet
facet normal 0.9336088653751773 0.358293854947129 0.0
  outer loop
    vertex 4.572037924873747 3.6724741377313883 0.0
    vertex 4.782488221493162 3.1241022917400176 1.8000000000000003
    vertex 4.782488221493162 3.1241022917400176 0.0
  endloop
endfacet
facet normal 0.9336088653751773 0.358293854947129 0.0
  outer loop
    vertex 4.782488221493162 3.1241022917400176 1.8000000000000003
    vertex 4.572037924873747 3.6724741377313883 0.0
    vertex 4.572037924873747 3.6724741377313883 1.8000000000000003
  endloop
endfacet
facet normal 0.9945301881218342 0.10444953285845211 0.0
  outer loop
    vertex 4.782488221493162 3.1241022917400176 0.0
    vertex 4.843838520607458 2.5399472184745626 1.8000000000000003
    vertex 4.843838520607458 2.5399472184745626 0.0
  endloop
endfacet
facet normal 0.9945301881218342 0.10444953285845211 0.0
  outer loop
    vertex 4.843838520607458 2.5399472184745626 1.8000000000000003
    vertex 4.782488221493162 3.1241022917400176 0.0
    vertex 4.782488221493162 3.1241022917400176 1.8000000000000003
  endloop
endfacet
facet normal 0.9876759220868341 -0.15651285228351705 0.0
  outer loop
    vertex 4.843838520607458 2.5399472184745626 0.0
    vertex 4.751907900718157 1.9598181208161591 1.8000000000000003
    vertex 4.751907900718157 1.9598181208161591 0.0
  endloop
endfacet
facet normal 0.9876759220868341 -0.15651285228351705 0.0
  outer loop
    vertex 4.751907900718157 1.9598181208161591 1.8000000000000003
    vertex 4.843838520607458 2.5399472184745626 0.0
    vertex 4.843838520607458 2.5399472184745626 1.8000000000000003
  endloop
endfacet
facet normal 0.9135131741732507 -0.40680914519208156 0.0
  outer loop
    vertex 4.751907900718157 1.9598181208161591 0.0
    vertex 4.512961281648183 1.4232498380615675 1.8000000000000003
    vertex 4.512961281648183 1.4232498380615675 0.0
  endloop
endfacet
facet normal 0.9135131741732507 -0.40680914519208156 0.0
  outer loop
    vertex 4.512961281648183 1.4232498380615675 1.8000000000000003
    vertex 4.751907900718157 1.9598181208161591 0.0
    vertex 4.751907900718157 1.9598181208161591 1.8000000000000003
  endloop
endfacet
facet normal 0.7770960130916597 -0.6293820671397041 0.0
  outer loop
    vertex 4.512961281648183 1.4232498380615675 0.0
    vertex 4.143282480609196 0.9668086119594982 1.8000000000000003
    vertex 4.143282480609196 0.9668086119594982 0.0
  endloop
endfacet
facet normal 0.7770960130916597 -0.6293820671397041 0.0
  outer loop
    vertex 4.143282480609196 0.9668086119594982 1.8000000000000003
    vertex 4.512961281648183 1.4232498380615675 0.0
    vertex 4.512961281648183 1.4232498380615675 1.8000000000000003
  endloop
endfacet
facet normal 0.5877210429297532 -0.8090636413147999 0.0
  outer loop
    vertex 4.143282480609196 0.9668086119594982 1.8000000000000003
    vertex 3.6680644969688982 0.6216001577640158 0.0
    vertex 4.143282480609196 0.9668086119594982 0.0
  endloop
endfacet
facet normal 0.5877210429297532 -0.8090636413147999 0.0
  outer loop
    vertex 3.6680644969688982 0.6216001577640158 0.0
    vertex 4.143282480609196 0.9668086119594982 1.8000000000000003
    vertex 3.6680644969688982 0.6216001577640158 1.8000000000000003
  endloop
endfacet
facet normal 0.35829385494712973 -0.933608865375177 0.0
  outer loop
    vertex 3.6680644969688982 0.6216001577640158 1.8000000000000003
    vertex 3.1196926509775285 0.41114986114460056 0.0
    vertex 3.6680644969688982 0.6216001577640158 0.0
  endloop
endfacet
facet normal 0.35829385494712973 -0.933608865375177 0.0
  outer loop
    vertex 3.1196926509775285 0.41114986114460056 0.0
    vertex 3.6680644969688982 0.6216001577640158 1.8000000000000003
    vertex 3.1196926509775285 0.41114986114460056 1.8000000000000003
  endloop
endfacet
facet normal 0.10444953285845146 -0.9945301881218344 0.0
  outer loop
    vertex 3.1196926509775285 0.41114986114460056 1.8000000000000003
    vertex 2.535537577712073 0.3497995620303049 0.0
    vertex 3.1196926509775285 0.41114986114460056 0.0
  endloop
endfacet
facet normal 0.10444953285845146 -0.9945301881218344 0.0
  outer loop
    vertex 2.535537577712073 0.3497995620303049 0.0
    vertex 3.1196926509775285 0.41114986114460056 1.8000000000000003
    vertex 2.535537577712073 0.3497995620303049 1.8000000000000003
  endloop
endfacet
facet normal -0.15651285228351683 -0.9876759220868341 -0.0
  outer loop
    vertex 2.535537577712073 0.3497995620303049 1.8000000000000003
    vertex 1.9554084800536706 0.44173018191960567 0.0
    vertex 2.535537577712073 0.3497995620303049 0.0
  endloop
endfacet
facet normal -0.15651285228351683 -0.9876759220868341 -0.0
  outer loop
    vertex 1.9554084800536706 0.44173018191960567 0.0
    vertex 2.535537577712073 0.3497995620303049 1.8000000000000003
    vertex 1.9554084800536706 0.44173018191960567 1.8000000000000003
  endloop
endfacet
facet normal -0.406809145192081 -0.913513174173251 -0.0
  outer loop
    vertex 1.9554084800536706 0.44173018191960567 1.8000000000000003
    vertex 1.418840197299078 0.6806768009895797 0.0
    vertex 1.9554084800536706 0.44173018191960567 0.0
  endloop
endfacet
facet normal -0.406809145192081 -0.913513174173251 -0.0
  outer loop
    vertex 1.418840197299078 0.6806768009895797 0.0
    vertex 1.9554084800536706 0.44173018191960567 1.8000000000000003
    vertex 1.418840197299078 0.6806768009895797 1.8000000000000003
  endloop
endfacet
facet normal -0.6293820671397037 -0.7770960130916602 -0.0
  outer loop
    vertex 1.418840197299078 0.6806768009895797 1.8000000000000003
    vertex 0.9623989711970087 1.050355602028566 0.0
    vertex 1.418840197299078 0.6806768009895797 0.0
  endloop
endfacet
facet normal -0.6293820671397037 -0.7770960130916602 -0.0
  outer loop
    vertex 0.9623989711970087 1.050355602028566 0.0
    vertex 1.418840197299078 0.6806768009895797 1.8000000000000003
    vertex 0.9623989711970087 1.050355602028566 1.8000000000000003
  endloop
endfacet
facet normal -0.8090636413147997 -0.5877210429297534 -0.0
  outer loop
    vertex 0.6171905170015266 1.5255735856688633 1.8000000000000003
    vertex 0.9623989711970087 1.050355602028566 0.0
    vertex 0.9623989711970087 1.050355602028566 1.8000000000000003
  endloop
endfacet
facet normal -0.8090636413147997 -0.5877210429297534 -0.0
  outer loop
    vertex 0.9623989711970087 1.050355602028566 0.0
    vertex 0.6171905170015266 1.5255735856688633 1.8000000000000003
    vertex 0.6171905170015266 1.5255735856688633 0.0
  endloop
endfacet
facet normal -0.9336088653751766 -0.35829385494713056 -0.0
  outer loop
    vertex 0.4067402203821107 2.0739454316602335 1.8000000000000003
    vertex 0.6171905170015266 1.5255735856688633 0.0
    vertex 0.6171905170015266 1.5255735856688633 1.8000000000000003
  endloop
endfacet
facet normal -0.9336088653751766 -0.35829385494713056 -0.0
  outer loop
    vertex 0.6171905170015266 1.5255735856688633 0.0
    vertex 0.4067402203821107 2.0739454316602335 1.8000000000000003
    vertex 0.4067402203821107 2.0739454316602335 0.0
  endloop
endfacet
facet normal -0.9945301881218344 -0.10444953285845146 -0.0
  outer loop
    vertex 0.34538992126781504 2.658100504925689 1.8000000000000003
    vertex 0.4067402203821107 2.0739454316602335 0.0
    vertex 0.4067402203821107 2.0739454316602335 1.8000000000000003
  endloop
endfacet
facet normal -0.9945301881218344 -0.10444953285845146 -0.0
  outer loop
    vertex 0.4067402203821107 2.0739454316602335 0.0
    vertex 0.34538992126781504 2.658100504925689 1.8000000000000003
    vertex 0.34538992126781504 2.658100504925689 0.0
  endloop
endfacet
facet normal -0.9876759220868341 0.15651285228351733 0.0
  outer loop
    vertex 0.43732054115711616 3.2382296025840915 1.8000000000000003
    vertex 0.34538992126781504 2.658100504925689 0.0
    vertex 0.34538992126781504 2.658100504925689 1.8000000000000003
  endloop
endfacet
facet normal -0.9876759220868341 0.15651285228351733 0.0
  outer loop
    vertex 0.34538992126781504 2.658100504925689 0.0
    vertex 0.43732054115711616 3.2382296025840915 1.8000000000000003
    vertex 0.43732054115711616 3.2382296025840915 0.0
  endloop
endfacet
facet normal -0.9135131741732513 0.40680914519208017 0.0
  outer loop
    vertex 0.6762671602270899 3.7747978853386845 1.8000000000000003
    vertex 0.43732054115711616 3.2382296025840915 0.0
    vertex 0.43732054115711616 3.2382296025840915 1.8000000000000003
  endloop
endfacet
facet normal -0.9135131741732513 0.40680914519208017 0.0
  outer loop
    vertex 0.43732054115711616 3.2382296025840915 0.0
    vertex 0.6762671602270899 3.7747978853386845 1.8000000000000003
    vertex 0.6762671602270899 3.7747978853386845 0.0
  endloop
endfacet
facet normal -0.7770960130916597 0.6293820671397041 0.0
  outer loop
    vertex 1.0459459612660764 4.231239111440754 1.8000000000000003
    vertex 0.6762671602270899 3.7747978853386845 0.0
    vertex 0.6762671602270899 3.7747978853386845 1.8000000000000003
  endloop
endfacet
facet normal -0.7770960130916597 0.6293820671397041 0.0
  outer loop
    vertex 0.6762671602270899 3.7747978853386845 0.0
    vertex 1.0459459612660764 4.231239111440754 1.8000000000000003
    vertex 1.0459459612660764 4.231239111440754 0.0
  endloop
endfacet
facet normal -0.5877210429297549 0.8090636413147987 0.0
  outer loop
    vertex 1.0459459612660764 4.231239111440754 1.8000000000000003
    vertex 1.5211639449063732 4.576447565636237 0.0
    vertex 1.0459459612660764 4.231239111440754 0.0
  endloop
endfacet
facet normal -0.5877210429297549 0.8090636413147987 0.0
  outer loop
    vertex 1.5211639449063732 4.576447565636237 0.0
    vertex 1.0459459612660764 4.231239111440754 1.8000000000000003
    vertex 1.5211639449063732 4.576447565636237 1.8000000000000003
  endloop
endfacet
facet normal -0.35829385494713 0.9336088653751767 0.0
  outer loop
    vertex 1.5211639449063732 4.576447565636237 1.8000000000000003
    vertex 2.069535790897744 4.786897862255652 0.0
    vertex 1.5211639449063732 4.576447565636237 0.0
  endloop
endfacet
facet normal -0.35829385494713 0.9336088653751767 0.0
  outer loop
    vertex 2.069535790897744 4.786897862255652 0.0
    vertex 1.5211639449063732 4.576447565636237 1.8000000000000003
    vertex 2.069535790897744 4.786897862255652 1.8000000000000003
  endloop
endfacet
facet normal -0.9979232480841476 -0.06441421375119744 -0.0
  outer loop
    vertex 4.4094237694161285 2.9581426481083195 1.8000000000000003
    vertex 4.44053241498556 2.4761986978172486 0.0
    vertex 4.44053241498556 2.4761986978172486 1.8000000000000003
  endloop
endfacet
facet normal -0.9979232480841476 -0.06441421375119744 -0.0
  outer loop
    vertex 4.44053241498556 2.4761986978172486 0.0
    vertex 4.4094237694161285 2.9581426481083195 1.8000000000000003
    vertex 4.4094237694161285 2.9581426481083195 0.0
  endloop
endfacet
facet normal -0.947248212684637 -0.3205008947971294 -0.0
  outer loop
    vertex 4.25463885223247 3.4156132465775277 1.8000000000000003
    vertex 4.4094237694161285 2.9581426481083195 0.0
    vertex 4.4094237694161285 2.9581426481083195 1.8000000000000003
  endloop
endfacet
facet normal -0.947248212684637 -0.3205008947971294 -0.0
  outer loop
    vertex 4.4094237694161285 2.9581426481083195 0.0
    vertex 4.25463885223247 3.4156132465775277 1.8000000000000003
    vertex 4.25463885223247 3.4156132465775277 0.0
  endloop
endfacet
facet normal -0.8320197769923539 -0.5547459695154113 -0.0
  outer loop
    vertex 3.9867259997464797 3.8174346279451066 1.8000000000000003
    vertex 4.25463885223247 3.4156132465775277 0.0
    vertex 4.25463885223247 3.4156132465775277 1.8000000000000003
  endloop
endfacet
facet normal -0.8320197769923539 -0.5547459695154113 -0.0
  outer loop
    vertex 4.25463885223247 3.4156132465775277 0.0
    vertex 3.9867259997464797 3.8174346279451066 1.8000000000000003
    vertex 3.9867259997464797 3.8174346279451066 0.0
  endloop
endfacet
facet normal -0.6600905684757344 -0.7511860231722779 -0.0
  outer loop
    vertex 3.9867259997464797 3.8174346279451066 1.8000000000000003
    vertex 3.6239430301081565 4.136223329112082 0.0
    vertex 3.9867259997464797 3.8174346279451066 0.0
  endloop
endfacet
facet normal -0.6600905684757344 -0.7511860231722779 -0.0
  outer loop
    vertex 3.6239430301081565 4.136223329112082 0.0
    vertex 3.9867259997464797 3.8174346279451066 1.8000000000000003
    vertex 3.6239430301081565 4.136223329112082 1.8000000000000003
  endloop
endfacet
facet normal -0.4431772785687369 -0.8964339907435506 -0.0
  outer loop
    vertex 3.6239430301081565 4.136223329112082 1.8000000000000003
    vertex 3.1910130031711477 4.350254426917164 0.0
    vertex 3.6239430301081565 4.136223329112082 0.0
  endloop
endfacet
facet normal -0.4431772785687369 -0.8964339907435506 -0.0
  outer loop
    vertex 3.1910130031711477 4.350254426917164 0.0
    vertex 3.6239430301081565 4.136223329112082 1.8000000000000003
    vertex 3.1910130031711477 4.350254426917164 1.8000000000000003
  endloop
endfacet
facet normal -0.1960621895123587 -0.9805914632728657 -0.0
  outer loop
    vertex 3.1910130031711477 4.350254426917164 1.8000000000000003
    vertex 2.717439384820514 4.444942055748049 0.0
    vertex 3.1910130031711477 4.350254426917164 0.0
  endloop
endfacet
facet normal -0.1960621895123587 -0.9805914632728657 -0.0
  outer loop
    vertex 2.717439384820514 4.444942055748049 0.0
    vertex 3.1910130031711477 4.350254426917164 1.8000000000000003
    vertex 2.717439384820514 4.444942055748049 1.8000000000000003
  endloop
endfacet
facet normal 0.0644142137511959 -0.9979232480841478 0.0
  outer loop
    vertex 2.717439384820514 4.444942055748049 1.8000000000000003
    vertex 2.235495434529442 4.4138334101786185 0.0
    vertex 2.717439384820514 4.444942055748049 0.0
  endloop
endfacet
facet normal 0.0644142137511959 -0.9979232480841478 0.0
  outer loop
    vertex 2.235495434529442 4.4138334101786185 0.0
    vertex 2.717439384820514 4.444942055748049 1.8000000000000003
    vertex 2.235495434529442 4.4138334101786185 1.8000000000000003
  endloop
endfacet
facet normal 0.320500894797131 -0.9472482126846367 0.0
  outer loop
    vertex 2.235495434529442 4.4138334101786185 1.8000000000000003
    vertex 1.778024836060234 4.25904849299496 0.0
    vertex 2.235495434529442 4.4138334101786185 0.0
  endloop
endfacet
facet normal 0.320500894797131 -0.9472482126846367 0.0
  outer loop
    vertex 1.778024836060234 4.25904849299496 0.0
    vertex 2.235495434529442 4.4138334101786185 1.8000000000000003
    vertex 1.778024836060234 4.25904849299496 1.8000000000000003
  endloop
endfacet
facet normal 0.5547459695154134 -0.8320197769923526 0.0
  outer loop
    vertex 1.778024836060234 4.25904849299496 1.8000000000000003
    vertex 1.3762034546926563 3.9911356405089684 0.0
    vertex 1.778024836060234 4.25904849299496 0.0
  endloop
endfacet
facet normal 0.5547459695154134 -0.8320197769923526 0.0
  outer loop
    vertex 1.3762034546926563 3.9911356405089684 0.0
    vertex 1.778024836060234 4.25904849299496 1.8000000000000003
    vertex 1.3762034546926563 3.9911356405089684 1.8000000000000003
  endloop
endfacet
facet normal 0.7511860231722771 -0.6600905684757353 0.0
  outer loop
    vertex 1.3762034546926563 3.9911356405089684 0.0
    vertex 1.057414753525681 3.6283526708706466 1.8000000000000003
    vertex 1.057414753525681 3.6283526708706466 0.0
  endloop
endfacet
facet normal 0.7511860231722771 -0.6600905684757353 0.0
  outer loop
    vertex 1.057414753525681 3.6283526708706466 1.8000000000000003
    vertex 1.3762034546926563 3.9911356405089684 0.0
    vertex 1.3762034546926563 3.9911356405089684 1.8000000000000003
  endloop
endfacet
facet normal 0.8964339907435509 -0.4431772785687367 0.0
  outer loop
    vertex 1.057414753525681 3.6283526708706466 0.0
    vertex 0.8433836557205988 3.195422643933638 1.8000000000000003
    vertex 0.8433836557205988 3.195422643933638 0.0
  endloop
endfacet
facet normal 0.8964339907435509 -0.4431772785687367 0.0
  outer loop
    vertex 0.8433836557205988 3.195422643933638 1.8000000000000003
    vertex 1.057414753525681 3.6283526708706466 0.0
    vertex 1.057414753525681 3.6283526708706466 1.8000000000000003
  endloop
endfacet
facet normal 0.9805914632728657 -0.19606218951235901 0.0
  outer loop
    vertex 0.8433836557205988 3.195422643933638 0.0
    vertex 0.7486960268897135 2.7218490255830035 1.8000000000000003
    vertex 0.7486960268897135 2.7218490255830035 0.0
  endloop
endfacet
facet normal 0.9805914632728657 -0.19606218951235901 0.0
  outer loop
    vertex 0.7486960268897135 2.7218490255830035 1.8000000000000003
    vertex 0.8433836557205988 3.195422643933638 0.0
    vertex 0.8433836557205988 3.195422643933638 1.8000000000000003
  endloop
endfacet
facet normal 0.9979232480841476 0.06441421375119744 0.0
  outer loop
    vertex 0.7486960268897135 2.7218490255830035 0.0
    vertex 0.779804672459145 2.239905075291932 1.8000000000000003
    vertex 0.779804672459145 2.239905075291932 0.0
  endloop
endfacet
facet normal 0.9979232480841476 0.06441421375119744 0.0
  outer loop
    vertex 0.779804672459145 2.239905075291932 1.8000000000000003
    vertex 0.7486960268897135 2.7218490255830035 0.0
    vertex 0.7486960268897135 2.7218490255830035 1.8000000000000003
  endloop
endfacet
facet normal 0.9472482126846368 0.3205008947971305 0.0
  outer loop
    vertex 0.779804672459145 2.239905075291932 0.0
    vertex 0.9345895896428036 1.7824344768227234 1.8000000000000003
    vertex 0.9345895896428036 1.7824344768227234 0.0
  endloop
endfacet
facet normal 0.9472482126846368 0.3205008947971305 0.0
  outer loop
    vertex 0.9345895896428036 1.7824344768227234 1.8000000000000003
    vertex 0.779804672459145 2.239905075291932 0.0
    vertex 0.779804672459145 2.239905075291932 1.8000000000000003
  endloop
endfacet
facet normal 0.8320197769923541 0.5547459695154113 0.0
  outer loop
    vertex 0.9345895896428036 1.7824344768227234 0.0
    vertex 1.2025024421287933 1.3806130954551459 1.8000000000000003
    vertex 1.2025024421287933 1.3806130954551459 0.0
  endloop
endfacet
facet normal 0.8320197769923541 0.5547459695154113 0.0
  outer loop
    vertex 1.2025024421287933 1.3806130954551459 1.8000000000000003
    vertex 0.9345895896428036 1.7824344768227234 0.0
    vertex 0.9345895896428036 1.7824344768227234 1.8000000000000003
  endloop
endfacet
facet normal 0.6600905684757349 0.7511860231722772 0.0
  outer loop
    vertex 1.2025024421287933 1.3806130954551459 1.8000000000000003
    vertex 1.5652854117671158 1.0618243942881707 0.0
    vertex 1.2025024421287933 1.3806130954551459 0.0
  endloop
endfacet
facet normal 0.6600905684757349 0.7511860231722772 0.0
  outer loop
    vertex 1.5652854117671158 1.0618243942881707 0.0
    vertex 1.2025024421287933 1.3806130954551459 1.8000000000000003
    vertex 1.5652854117671158 1.0618243942881707 1.8000000000000003
  endloop
endfacet
facet normal 0.44317727856873645 0.8964339907435508 0.0
  outer loop
    vertex 1.5652854117671158 1.0618243942881707 1.8000000000000003
    vertex 1.9982154387041244 0.8477932964830883 0.0
    vertex 1.5652854117671158 1.0618243942881707 0.0
  endloop
endfacet
facet normal 0.44317727856873645 0.8964339907435508 0.0
  outer loop
    vertex 1.9982154387041244 0.8477932964830883 0.0
    vertex 1.5652854117671158 1.0618243942881707 1.8000000000000003
    vertex 1.9982154387041244 0.8477932964830883 1.8000000000000003
  endloop
endfacet
facet normal 0.1960621895123594 0.9805914632728656 0.0
  outer loop
    vertex 1.9982154387041244 0.8477932964830883 1.8000000000000003
    vertex 2.4717890570547585 0.753105667652203 0.0
    vertex 1.9982154387041244 0.8477932964830883 0.0
  endloop
endfacet
facet normal 0.1960621895123594 0.9805914632728656 0.0
  outer loop
    vertex 2.4717890570547585 0.753105667652203 0.0
    vertex 1.9982154387041244 0.8477932964830883 1.8000000000000003
    vertex 2.4717890570547585 0.753105667652203 1.8000000000000003
  endloop
endfacet
facet normal -0.0644142137511974 0.9979232480841476 0.0
  outer loop
    vertex 2.4717890570547585 0.753105667652203 1.8000000000000003
    vertex 2.9537330073458303 0.7842143132216345 0.0
    vertex 2.4717890570547585 0.753105667652203 0.0
  endloop
endfacet
facet normal -0.0644142137511974 0.9979232480841476 0.0
  outer loop
    vertex 2.9537330073458303 0.7842143132216345 0.0
    vertex 2.4717890570547585 0.753105667652203 1.8000000000000003
    vertex 2.9537330073458303 0.7842143132216345 1.8000000000000003
  endloop
endfacet
facet normal -0.3205008947971303 0.9472482126846368 0.0
  outer loop
    vertex 2.9537330073458303 0.7842143132216345 1.8000000000000003
    vertex 3.411203605815038 0.9389992304052927 0.0
    vertex 2.9537330073458303 0.7842143132216345 0.0
  endloop
endfacet
facet normal -0.3205008947971303 0.9472482126846368 0.0
  outer loop
    vertex 3.411203605815038 0.9389992304052927 0.0
    vertex 2.9537330073458303 0.7842143132216345 1.8000000000000003
    vertex 3.411203605815038 0.9389992304052927 1.8000000000000003
  endloop
endfacet
facet normal -0.5547459695154107 0.8320197769923545 0.0
  outer loop
    vertex 3.411203605815038 0.9389992304052927 1.8000000000000003
    vertex 3.813024987182617 1.2069120828912827 0.0
    vertex 3.411203605815038 0.9389992304052927 0.0
  endloop
endfacet
facet normal -0.5547459695154107 0.8320197769923545 0.0
  outer loop
    vertex 3.813024987182617 1.2069120828912827 0.0
    vertex 3.411203605815038 0.9389992304052927 1.8000000000000003
    vertex 3.813024987182617 1.2069120828912827 1.8000000000000003
  endloop
endfacet
facet normal -0.7511860231722776 0.6600905684757346 0.0
  outer loop
    vertex 4.131813688349592 1.5696950525296056 1.8000000000000003
    vertex 3.813024987182617 1.2069120828912827 0.0
    vertex 3.813024987182617 1.2069120828912827 1.8000000000000003
  endloop
endfacet
facet normal -0.7511860231722776 0.6600905684757346 0.0
  outer loop
    vertex 3.813024987182617 1.2069120828912827 0.0
    vertex 4.131813688349592 1.5696950525296056 1.8000000000000003
    vertex 4.131813688349592 1.5696950525296056 0.0
  endloop
endfacet
facet normal -0.8964339907435508 0.4431772785687366 0.0
  outer loop
    vertex 4.345844786154673 2.0026250794666134 1.8000000000000003
    vertex 4.131813688349592 1.5696950525296056 0.0
    vertex 4.131813688349592 1.5696950525296056 1.8000000000000003
  endloop
endfacet
facet normal -0.8964339907435508 0.4431772785687366 0.0
  outer loop
    vertex 4.131813688349592 1.5696950525296056 0.0
    vertex 4.345844786154673 2.0026250794666134 1.8000000000000003
    vertex 4.345844786154673 2.0026250794666134 0.0
  endloop
endfacet
facet normal -0.9805914632728656 0.1960621895123597 0.0
  outer loop
    vertex 4.44053241498556 2.4761986978172486 1.8000000000000003
    vertex 4.345844786154673 2.0026250794666134 0.0
    vertex 4.345844786154673 2.0026250794666134 1.8000000000000003
  endloop
endfacet
facet normal -0.9805914632728656 0.1960621895123597 0.0
  outer loop
    vertex 4.345844786154673 2.0026250794666134 0.0
    vertex 4.44053241498556 2.4761986978172486 1.8000000000000003
    vertex 4.44053241498556 2.4761986978172486 0.0
  endloop
endfacet
endsolid Spacer_for_ballheads_M3_1.8mm
